<svg width="66" height="42" viewBox="0 0 66 42" fill="none" xmlns="http://www.w3.org/2000/svg">
<path d="M63.2987 27.6191L53.3093 27.589" stroke="#426CD8" stroke-width="2.6" stroke-miterlimit="22.9256" stroke-linecap="round" stroke-linejoin="round"/>
<path d="M11.9368 27.6191L1.94739 27.589" stroke="#426CD8" stroke-width="2.6" stroke-miterlimit="22.9256" stroke-linecap="round" stroke-linejoin="round"/>
<path d="M11.49 33.4224L5.14682 33.4032" stroke="#426CD8" stroke-width="2.6" stroke-miterlimit="22.9256" stroke-linecap="round" stroke-linejoin="round"/>
<path d="M59.3431 33.4224L53 33.4032" stroke="#426CD8" stroke-width="2.6" stroke-miterlimit="22.9256" stroke-linecap="round" stroke-linejoin="round"/>
<path d="M52.1723 22.4915V39.0624C52.1723 39.8156 51.5446 40.5688 50.6658 40.5688H14.0089C13.2557 40.5688 12.5025 39.9411 12.5025 39.0624V22.7425" stroke="#426CD8" stroke-width="2.6" stroke-miterlimit="22.9256" stroke-linecap="round" stroke-linejoin="round"/>
<path d="M25.6839 8.17984V3.91158C25.6839 2.53067 26.8137 1.52637 28.0691 1.52637H36.6056C37.9866 1.52637 38.9909 2.6562 38.9909 3.91158V8.17984" stroke="#426CD8" stroke-width="2.6" stroke-miterlimit="22.9256" stroke-linecap="round" stroke-linejoin="round"/>
<path d="M26.1579 25.2105C20.0066 24.9594 15.8921 24.1234 10.3684 21.4871V9.81211C10.3684 9.05889 10.9961 8.30566 11.8749 8.30566H52.8C53.5532 8.30566 54.3065 8.93335 54.3065 9.81211V21.236C48.7828 24.1234 45.5926 24.9594 39.3158 25.2105" stroke="#426CD8" stroke-width="2.6" stroke-miterlimit="22.9256" stroke-linecap="round" stroke-linejoin="round"/>
<path d="M37.6629 23.16H35.1V20.4C35.1 19.64 34.5057 19 33.8 19H31.1257C30.42 19 29.8257 19.64 29.8257 20.4V23.16H27.3C26.5943 23.16 26 23.8 26 24.56V27.44C26 28.2 26.5943 28.84 27.3 28.84H29.8629V31.6C29.8629 32.36 30.4571 33 31.1629 33H33.8371C34.5429 33 35.1371 32.36 35.1371 31.6V28.84H37.7C38.4057 28.84 39 28.2 39 27.44V24.56C38.9629 23.8 38.4057 23.16 37.6629 23.16Z" stroke="#426CD8" stroke-width="2.6" stroke-miterlimit="22.9256" stroke-linecap="round" stroke-linejoin="round"/>
</svg>
