<svg width="51" height="50" viewBox="0 0 51 50" fill="none" xmlns="http://www.w3.org/2000/svg">
<path d="M6.41098 23.2056L25.375 48.3472L44.1953 23.2056H6.41098Z" stroke="#426CD8" stroke-width="2.6" stroke-miterlimit="22.9256" stroke-linecap="round" stroke-linejoin="round"/>
<path d="M19.7719 23.2056H18.9099L24.8003 45.6176L25.2313 47.3416H25.3749L25.6623 45.6176L31.6963 23.2056" stroke="#426CD8" stroke-width="2.6" stroke-miterlimit="22.9256" stroke-linecap="round" stroke-linejoin="round"/>
<path d="M6.41098 22.9191L10.5773 15.1611H40.6037L44.1953 22.9191" stroke="#426CD8" stroke-width="2.6" stroke-miterlimit="22.9256" stroke-linecap="round" stroke-linejoin="round"/>
<path d="M15.1747 15.1611L18.479 22.6318C19.0537 23.3501 18.91 23.3501 19.4847 22.6318L22.789 15.1611" stroke="#426CD8" stroke-width="2.6" stroke-miterlimit="22.9256" stroke-linecap="round" stroke-linejoin="round"/>
<path d="M27.8173 15.1611L31.1216 22.6318C31.6963 23.3501 31.5526 23.3501 32.1273 22.6318L35.4316 15.1611" stroke="#426CD8" stroke-width="2.6" stroke-miterlimit="22.9256" stroke-linecap="round" stroke-linejoin="round"/>
<path d="M25.2313 1.36841V7.25874" stroke="#426CD8" stroke-width="2.6" stroke-miterlimit="22.9256" stroke-linecap="round" stroke-linejoin="round"/>
<path d="M12.1576 3.66699L14.5999 8.98266" stroke="#426CD8" stroke-width="2.6" stroke-miterlimit="22.9256" stroke-linecap="round" stroke-linejoin="round"/>
<path d="M1.52631 10.4194L6.12364 14.1548" stroke="#426CD8" stroke-width="2.6" stroke-miterlimit="22.9256" stroke-linecap="round" stroke-linejoin="round"/>
<path d="M38.305 3.37964L35.719 8.83897" stroke="#426CD8" stroke-width="2.6" stroke-miterlimit="22.9256" stroke-linecap="round" stroke-linejoin="round"/>
<path d="M49 10L44 14" stroke="#426CD8" stroke-width="2.6" stroke-miterlimit="22.9256" stroke-linecap="round" stroke-linejoin="round"/>
</svg>
