<svg width="31" height="30" viewBox="0 0 31 30" fill="none" xmlns="http://www.w3.org/2000/svg">
<path d="M0.581267 6.98084C0.387517 7.16952 0.193767 7.54687 0.581267 7.73555C0.775017 7.92423 1.35627 8.49027 1.55002 8.67895C1.74377 8.86763 2.32502 9.05631 2.71252 9.05631C3.10002 9.05631 4.26252 9.05631 5.42502 9.05631H25.9625C26.9313 9.05631 28.0938 9.05631 28.4813 9.05631C28.8688 9.05631 29.2563 8.86763 29.6438 8.49027C29.8375 8.30159 30.4188 7.73555 30.6125 7.54687C30.8063 7.3582 30.8063 6.98084 30.4188 6.79216C30.0313 6.60348 28.8688 6.03744 28.0938 5.66008L18.7938 1.50914C17.825 0.943101 16.6625 0.377064 16.275 0.188384C15.8875 -0.000294808 15.1125 -0.000294808 14.9188 0.188384C14.5313 0.377064 13.3688 0.943101 12.4 1.32046L3.10002 5.84876C2.13127 6.22612 0.968767 6.79216 0.581267 6.98084Z" fill="#3957CA"/>
<path d="M29.0625 26.0375C29.0625 25.0941 28.0938 24.3394 27.125 24.3394H3.875C2.90625 24.3394 1.9375 25.2828 1.9375 26.0375C0.96875 26.0375 0 26.9809 0 28.1129V29.9997H1.9375H29.0625H31V28.1129C31 26.9809 30.0312 26.0375 29.0625 26.0375Z" fill="#3957CA"/>
<path d="M8.71875 12.0752C8.71875 11.5092 8.33125 11.1318 7.75 11.1318H3.875C3.29375 11.1318 2.90625 11.5092 2.90625 12.0752C2.90625 12.6413 3.29375 13.0186 3.875 13.0186V20.5658C3.29375 20.5658 2.90625 20.9432 2.90625 21.5092C2.90625 22.0752 3.29375 22.4526 3.875 22.4526H7.75C8.33125 22.4526 8.71875 22.0752 8.71875 21.5092C8.71875 20.9432 8.33125 20.5658 7.75 20.5658V13.0186C8.33125 13.0186 8.71875 12.4526 8.71875 12.0752Z" fill="#3957CA"/>
<path d="M18.4062 12.0752C18.4062 11.5092 18.0188 11.1318 17.4375 11.1318H13.5625C12.9812 11.1318 12.5938 11.5092 12.5938 12.0752C12.5938 12.6413 12.9812 13.0186 13.5625 13.0186V20.5658C12.9812 20.5658 12.5938 20.9432 12.5938 21.5092C12.5938 22.0752 12.9812 22.4526 13.5625 22.4526H17.4375C18.0188 22.4526 18.4062 22.0752 18.4062 21.5092C18.4062 20.9432 18.0188 20.5658 17.4375 20.5658V13.0186C18.0188 13.0186 18.4062 12.4526 18.4062 12.0752Z" fill="#3957CA"/>
<path d="M27.125 20.5658V13.0186C27.7063 13.0186 28.0938 12.6413 28.0938 12.0752C28.0938 11.5092 27.7063 11.1318 27.125 11.1318H23.25C22.6687 11.1318 22.2812 11.5092 22.2812 12.0752C22.2812 12.6413 22.6687 13.0186 23.25 13.0186V20.5658C22.6687 20.5658 22.2812 20.9432 22.2812 21.5092C22.2812 22.0752 22.6687 22.4526 23.25 22.4526H27.125C27.7063 22.4526 28.0938 22.0752 28.0938 21.5092C28.0938 20.9432 27.7063 20.5658 27.125 20.5658Z" fill="#3957CA"/>
</svg>
