<svg width="30" height="31" viewBox="0 0 30 31" fill="none" xmlns="http://www.w3.org/2000/svg">
<path d="M29.4626 7.19215L29.4001 6.1647L28.4013 5.80207C27.4025 5.43944 25.9667 5.25813 24.7805 5.19769C24.7805 5.01637 24.7805 4.83506 24.7805 4.65374C25.5297 4.35155 25.9667 4.04936 25.9667 3.74717V2.0549C25.9667 0.906574 20.9101 0 14.7298 0C8.48709 0 3.49292 0.906574 3.49292 2.0549V3.80761C3.49292 4.1098 3.92991 4.41199 4.67904 4.71418C4.67904 4.8955 4.67904 5.07681 4.67904 5.25813C3.49292 5.31857 2.11953 5.49988 1.05827 5.86251L0.0594358 6.22514V7.25259C-0.0654182 9.4888 -0.43998 15.5326 4.61661 17.2853C6.30214 17.8897 7.86282 18.1919 9.11136 18.3732C10.1102 19.4611 11.2963 20.2468 12.5448 20.6699C11.983 21.0325 11.6709 21.5765 11.6709 22.1204C11.6709 22.7248 12.0454 23.2687 12.6697 23.6918C10.3599 24.1149 8.73679 25.0819 8.73679 26.2906V26.895C7.86281 27.0763 7.3634 27.3181 7.3634 27.5598V29.2521C7.3634 29.8565 10.672 30.34 14.7922 30.34C18.9124 30.34 22.221 29.8565 22.221 29.2521V27.5598C22.221 27.3181 21.7216 27.0763 20.8476 26.895V26.2906C20.8476 25.0819 19.2245 24.1149 16.9147 23.6918C17.539 23.3292 17.9136 22.7248 17.9136 22.1204C17.9136 21.5765 17.6014 21.0325 17.0396 20.6699C18.2881 20.2468 19.4118 19.4611 20.4731 18.3732C21.7216 18.1919 23.2823 17.8897 24.9678 17.2853C29.962 15.5326 29.6498 9.4888 29.4626 7.19215ZM5.61544 14.4447C3.4305 13.659 3.05593 11.0602 3.11836 8.46135C3.6802 8.34048 4.30447 8.34048 4.92874 8.28004C5.24088 10.758 5.86515 12.9338 6.73913 14.7469C6.36457 14.6865 5.99 14.5656 5.61544 14.4447ZM12.0454 17.8897C9.73563 15.2909 8.11252 10.758 7.98767 4.65374C8.79922 4.41199 8.92408 4.41199 10.0478 4.29112C10.0478 10.4558 11.2339 14.9887 12.2951 17.8897H12.0454ZM23.9066 14.4447C23.532 14.5656 23.1574 14.6865 22.8453 14.8074C23.7193 12.9942 24.3436 10.758 24.6557 8.34048C25.2175 8.40092 25.9042 8.40092 26.4661 8.52179C26.4661 10.9998 26.0915 13.659 23.9066 14.4447Z" fill="#3957CA"/>
</svg>
