<svg width="30" height="30" viewBox="0 0 30 30" fill="none" xmlns="http://www.w3.org/2000/svg">
<path d="M24.375 7.5H22.5C22.5 7.5 22.5 6.9375 22.5 6.5625C22.5 3 19.125 0 15 0C10.875 0 7.5 3 7.5 6.5625C7.5 6.9375 7.5 7.5 7.5 7.5H5.625C2.4375 7.5 0 9.9375 0 13.125V24.375C0 27.5625 2.4375 30 5.625 30H7.5H22.5H24.375C27.5625 30 30 27.5625 30 24.375V13.125C30 9.9375 27.5625 7.5 24.375 7.5ZM11.25 5.8125C11.25 4.3125 12.9375 3 15 3C17.0625 3 18.75 4.3125 18.75 5.8125C18.75 6.1875 18.75 7.5 18.75 7.5H11.25C11.25 7.5 11.25 6.1875 11.25 5.8125ZM22.5 19.6875C22.5 20.25 22.125 20.625 21.5625 20.625H16.875V25.3125C16.875 25.875 16.5 26.25 15.9375 26.25H14.0625C13.5 26.25 13.125 25.875 13.125 25.3125V20.625H8.4375C7.875 20.625 7.5 20.25 7.5 19.6875V17.8125C7.5 17.25 7.875 16.875 8.4375 16.875H13.125V12.1875C13.125 11.625 13.5 11.25 14.0625 11.25H15.9375C16.5 11.25 16.875 11.625 16.875 12.1875V16.875H21.5625C22.125 16.875 22.5 17.25 22.5 17.8125V19.6875Z" fill="#3957CA"/>
</svg>
