<svg width="28" height="26" viewBox="0 0 28 26" fill="none" xmlns="http://www.w3.org/2000/svg">
<path d="M27.954 3.43558C27.954 4.46626 27.2569 5.15337 26.2113 5.15337H1.8135C0.767881 5.15337 0.0708008 4.46626 0.0708008 3.43558V1.71779C0.0708008 0.687117 0.767881 0 1.8135 0H26.2113C27.2569 0 27.954 0.687117 27.954 1.71779V3.43558Z" fill="#254078"/>
<path d="M27.954 13.7422C27.954 14.7729 27.2569 15.46 26.2113 15.46H1.8135C0.767881 15.46 0.0708008 14.7729 0.0708008 13.7422V12.0244C0.0708008 10.9938 0.767881 10.3066 1.8135 10.3066H26.2113C27.2569 10.3066 27.954 10.9938 27.954 12.0244V13.7422Z" fill="#254078"/>
<path d="M27.954 24.0489C27.954 25.0795 27.2569 25.7667 26.2113 25.7667H1.8135C0.767881 25.7667 0.0708008 25.0795 0.0708008 24.0489V22.3311C0.0708008 21.3004 0.767881 20.6133 1.8135 20.6133H26.2113C27.2569 20.6133 27.954 21.3004 27.954 22.3311V24.0489Z" fill="#254078"/>
</svg>
