<svg width="51" height="50" viewBox="0 0 51 50" fill="none" xmlns="http://www.w3.org/2000/svg">
<path d="M6.41101 23.2054L25.375 48.3471L44.1954 23.2054H6.41101Z" stroke="#426CD8" stroke-width="2.6" stroke-miterlimit="22.9256" stroke-linecap="round" stroke-linejoin="round"/>
<path d="M19.772 23.2054H18.91L24.8003 45.6174L25.2313 47.3415H25.375L25.6623 45.6174L31.6963 23.2054" stroke="#426CD8" stroke-width="2.6" stroke-miterlimit="22.9256" stroke-linecap="round" stroke-linejoin="round"/>
<path d="M6.41101 22.9188L10.5773 15.1608H40.6037L44.1954 22.9188" stroke="#426CD8" stroke-width="2.6" stroke-miterlimit="22.9256" stroke-linecap="round" stroke-linejoin="round"/>
<path d="M15.1747 15.1608L18.479 22.6314C19.0537 23.3498 18.91 23.3498 19.4847 22.6314L22.789 15.1608" stroke="#426CD8" stroke-width="2.6" stroke-miterlimit="22.9256" stroke-linecap="round" stroke-linejoin="round"/>
<path d="M27.8173 15.1608L31.1217 22.6314C31.6963 23.3498 31.5527 23.3498 32.1273 22.6314L35.4317 15.1608" stroke="#426CD8" stroke-width="2.6" stroke-miterlimit="22.9256" stroke-linecap="round" stroke-linejoin="round"/>
<path d="M25.2313 1.36816V7.2585" stroke="#426CD8" stroke-width="2.6" stroke-miterlimit="22.9256" stroke-linecap="round" stroke-linejoin="round"/>
<path d="M12.1576 3.66663L14.5999 8.98229" stroke="#426CD8" stroke-width="2.6" stroke-miterlimit="22.9256" stroke-linecap="round" stroke-linejoin="round"/>
<path d="M1.52631 10.4191L6.12364 14.1544" stroke="#426CD8" stroke-width="2.6" stroke-miterlimit="22.9256" stroke-linecap="round" stroke-linejoin="round"/>
<path d="M38.3051 3.37939L35.7191 8.83873" stroke="#426CD8" stroke-width="2.6" stroke-miterlimit="22.9256" stroke-linecap="round" stroke-linejoin="round"/>
<path d="M49 9.99976L44 13.9998" stroke="#426CD8" stroke-width="2.6" stroke-miterlimit="22.9256" stroke-linecap="round" stroke-linejoin="round"/>
</svg>
