<svg width="53" height="48" viewBox="0 0 53 48" fill="none" xmlns="http://www.w3.org/2000/svg">
<path d="M44.6568 27.5554L47.7554 24.473C53.1075 19.1488 50.4314 11.8631 46.2061 7.23945C44.7977 5.69824 43.1075 4.43725 41.4174 3.45648C39.1639 2.19549 32.2625 0.374065 27.7554 4.85758L18.3188 14.1048C15.7836 16.6268 22.1216 19.0087 25.3611 15.9263L27.7554 13.5444C31.2765 10.462 35.6427 16.7669 41.1357 12.4235" stroke="#426CD8" stroke-width="2.6" stroke-miterlimit="22.9256" stroke-linecap="round" stroke-linejoin="round"/>
<path d="M8.178 26.1545L5.07941 23.0721C-5.20227 12.704 12.685 -4.9499 23.2484 5.27813L25.3611 7.37978" stroke="#426CD8" stroke-width="2.6" stroke-miterlimit="22.9256" stroke-linecap="round" stroke-linejoin="round"/>
<path d="M32.9667 15.7863L45.0793 28.3961C47.4737 30.9181 43.9526 35.822 40.7132 32.5994L35.0794 26.8549" stroke="#426CD8" stroke-width="2.6" stroke-miterlimit="22.9256" stroke-linecap="round" stroke-linejoin="round"/>
<path d="M30.0089 30.7781L36.2061 37.083C38.7413 39.605 43.6709 35.822 40.5723 32.5995L34.516 26.2946" stroke="#426CD8" stroke-width="2.6" stroke-miterlimit="22.9256" stroke-linecap="round" stroke-linejoin="round"/>
<path d="M28.178 37.7837L31.2766 40.8661C33.8118 43.3881 38.6005 39.7452 35.5019 36.5227" stroke="#426CD8" stroke-width="2.6" stroke-miterlimit="22.9256" stroke-linecap="round" stroke-linejoin="round"/>
<path d="M15.6428 23.6325L15.9245 23.9127C17.0512 25.0336 17.0512 26.855 15.9245 27.9759L11.5583 32.3193C10.4315 33.4402 8.60053 33.4402 7.47377 32.3193L7.33292 31.899C6.20616 30.7781 6.20616 28.9567 7.33292 27.8358L11.6991 23.4924C12.685 22.5116 14.516 22.5116 15.6428 23.6325ZM22.8259 25.594L23.1076 25.8742C24.2343 26.9951 24.2343 28.8166 23.1076 29.9374L16.2062 36.8028C15.0794 37.9237 13.2484 37.9237 12.1216 36.8028L11.84 36.5226C10.7132 35.4017 10.7132 33.5803 11.84 32.4594L18.7414 25.594C19.8681 24.4731 21.6991 24.4731 22.8259 25.594ZM25.6428 31.899L25.9244 32.1792C27.0512 33.3001 27.0512 35.1215 25.9244 36.2424L21.2766 40.866C20.1498 41.9869 18.3188 41.9869 17.1921 40.866L16.9104 40.5858C15.7836 39.4649 15.7836 37.6435 16.9104 36.5226L21.5583 31.899C22.685 30.7781 24.516 30.7781 25.6428 31.899ZM28.7413 37.9237L29.023 38.2039C30.1498 39.3248 30.1498 41.1462 29.023 42.2671L26.2061 45.0693C25.0794 46.1902 23.2484 46.1902 22.1216 45.0693L21.8399 44.7891C20.7132 43.6682 20.7132 41.8468 21.8399 40.7259L24.6568 37.9237C25.7836 36.8028 27.6146 36.8028 28.7413 37.9237Z" stroke="#426CD8" stroke-width="2.6" stroke-miterlimit="22.9256"/>
</svg>
