<svg width="32" height="31" viewBox="0 0 32 31" fill="none" xmlns="http://www.w3.org/2000/svg">
<g filter="url(#filter0_d_485_8)">
<path d="M16.4824 4C10.1417 4 4.98242 9.15925 4.98242 15.5C4.98242 17.6869 5.59818 19.8131 6.76347 21.6505L7.03471 22.0782L6.10755 26.1898L9.90143 25.102L10.3439 25.3479C12.1214 26.3363 14.5887 27 16.4824 27C22.8239 27 27.9824 21.8407 27.9824 15.5C27.9831 9.15925 22.8239 4 16.4824 4ZM22.9119 20.6522C22.213 21.4991 21.4183 21.976 20.3122 21.9387C17.9352 21.8584 14.7436 20.3838 12.5977 17.9123C10.7123 15.7402 10.0452 14.3009 9.75137 12.9954C9.74925 11.8203 9.98175 10.5965 11.2992 9.37202C11.6409 9.22759 12.5885 9.19166 12.926 9.37202C12.926 9.37202 14.4625 12.1958 14.3583 12.944C13.9215 13.7408 13.3571 13.8479 13.305 14.4827C13.236 15.321 15.773 18.1631 18.143 18.8726C18.7066 18.7458 19.1004 17.8792 19.8155 17.2367C20.2221 16.8717 23.124 18.2899 23.3248 18.762C23.4333 19.5982 23.3692 20.0977 22.9119 20.6522Z" fill="white"/>
</g>
<defs>
<filter id="filter0_d_485_8" x="0.982422" y="0" width="31" height="31" filterUnits="userSpaceOnUse" color-interpolation-filters="sRGB">
<feFlood flood-opacity="0" result="BackgroundImageFix"/>
<feColorMatrix in="SourceAlpha" type="matrix" values="0 0 0 0 0 0 0 0 0 0 0 0 0 0 0 0 0 0 127 0" result="hardAlpha"/>
<feOffset/>
<feGaussianBlur stdDeviation="2"/>
<feComposite in2="hardAlpha" operator="out"/>
<feColorMatrix type="matrix" values="0 0 0 0 0 0 0 0 0 0 0 0 0 0 0 0 0 0 0.15 0"/>
<feBlend mode="normal" in2="BackgroundImageFix" result="effect1_dropShadow_485_8"/>
<feBlend mode="normal" in="SourceGraphic" in2="effect1_dropShadow_485_8" result="shape"/>
</filter>
</defs>
</svg>
