<svg width="48" height="46" viewBox="0 0 48 46" fill="none" xmlns="http://www.w3.org/2000/svg">
<path d="M31.5411 12.4342V42.9239C31.5411 43.7369 30.8635 44.55 29.915 44.55H3.62611C2.81306 44.55 2 43.8725 2 42.9239V3.62611C2 2.81306 2.67755 2 3.62611 2H21.2424" stroke="#426CD8" stroke-width="2.44" stroke-miterlimit="22.9256" stroke-linecap="round" stroke-linejoin="round"/>
<path d="M31.5411 12.4342H22.733C21.9199 12.4342 21.1068 11.7567 21.1068 10.8081V2L31.5411 12.4342Z" stroke="#426CD8" stroke-width="2.44" stroke-miterlimit="22.9256" stroke-linecap="round" stroke-linejoin="round"/>
<path d="M37.2325 7.42035H42.9239V36.9614C42.9239 42.7883 37.2325 42.7883 37.2325 36.9614V7.42035Z" stroke="#426CD8" stroke-width="2.44" stroke-miterlimit="22.9256" stroke-linecap="round" stroke-linejoin="round"/>
<path d="M46.5826 23.0039V12.0276H37.2325" stroke="#426CD8" stroke-width="2.44" stroke-miterlimit="22.9256" stroke-linecap="round" stroke-linejoin="round"/>
<path d="M8.36895 10.537H16.7705" stroke="#426CD8" stroke-width="2.44" stroke-miterlimit="22.9256" stroke-linecap="round" stroke-linejoin="round"/>
<path d="M8.36895 18.5323H25.1721" stroke="#426CD8" stroke-width="2.44" stroke-miterlimit="22.9256" stroke-linecap="round" stroke-linejoin="round"/>
<path d="M8.36895 23.1395H25.1721" stroke="#426CD8" stroke-width="2.44" stroke-miterlimit="22.9256" stroke-linecap="round" stroke-linejoin="round"/>
<path d="M8.36895 27.7468H25.1721" stroke="#426CD8" stroke-width="2.44" stroke-miterlimit="22.9256" stroke-linecap="round" stroke-linejoin="round"/>
<path d="M8.36895 32.4896H16.7705" stroke="#426CD8" stroke-width="2.44" stroke-miterlimit="22.9256" stroke-linecap="round" stroke-linejoin="round"/>
</svg>
