<svg width="49" height="51" viewBox="0 0 49 51" fill="none" xmlns="http://www.w3.org/2000/svg">
<path d="M5.65628 15.9798L21.6027 10.049" stroke="#426CD8" stroke-width="2.44" stroke-miterlimit="22.9256" stroke-linecap="round" stroke-linejoin="round"/>
<path d="M27.1979 7.93084L43.4241 2" stroke="#426CD8" stroke-width="2.44" stroke-miterlimit="22.9256" stroke-linecap="round" stroke-linejoin="round"/>
<path d="M24.5402 49.0231V12.1672" stroke="#426CD8" stroke-width="2.44" stroke-miterlimit="22.9256" stroke-linecap="round" stroke-linejoin="round"/>
<path d="M13.07 49.0231H36.0104" stroke="#426CD8" stroke-width="2.44" stroke-miterlimit="22.9256" stroke-linecap="round" stroke-linejoin="round"/>
<path d="M24.5402 6.3775C26.0789 6.3775 27.3378 7.6484 27.3378 9.20171C27.3378 10.755 26.0789 12.0259 24.5402 12.0259C23.0015 12.0259 21.7426 10.755 21.7426 9.20171C21.7426 7.6484 23.0015 6.3775 24.5402 6.3775Z" stroke="#426CD8" stroke-width="2.44" stroke-miterlimit="22.9256" stroke-linecap="round" stroke-linejoin="round"/>
<path d="M2.01936 37.3026H18.5253" stroke="#426CD8" stroke-width="2.44" stroke-miterlimit="22.9256" stroke-linecap="round" stroke-linejoin="round"/>
<path d="M2.43901 38.9971C3.9777 41.9626 6.9152 44.2219 10.2723 44.2219C13.6295 44.2219 16.4271 42.1038 18.1057 39.1384C18.6652 38.0087 18.6652 37.3026 18.2456 36.0317L11.5313 18.098C11.3914 17.8156 11.2515 17.5332 10.8319 17.392C10.2723 17.2507 9.71282 17.5332 9.57294 17.9568C7.19496 25.0173 4.81698 28.83 2.29913 35.8905C1.87948 37.3026 1.87948 38.0087 2.43901 38.9971Z" stroke="#426CD8" stroke-width="2.44" stroke-miterlimit="22.9256" stroke-linecap="round" stroke-linejoin="round"/>
<path d="M30.5551 26.9943H47.061" stroke="#426CD8" stroke-width="2.44" stroke-miterlimit="22.9256" stroke-linecap="round" stroke-linejoin="round"/>
<path d="M30.9747 28.6888C32.5134 31.6542 35.4509 33.9136 38.8081 33.9136C42.1652 33.9136 44.9628 31.7954 46.6414 28.83C47.2009 27.7003 47.2009 26.9943 46.7813 25.7234L40.067 7.78966C39.9271 7.50724 39.7872 7.22482 39.3676 7.08361C38.8081 6.9424 38.2485 7.22482 38.1087 7.64845C35.7307 14.709 33.3527 18.5216 30.8348 25.5822C30.4152 26.8531 30.4152 27.5591 30.9747 28.6888Z" stroke="#426CD8" stroke-width="2.44" stroke-miterlimit="22.9256" stroke-linecap="round" stroke-linejoin="round"/>
</svg>
