<svg width="26" height="32" viewBox="0 0 26 32" fill="none" xmlns="http://www.w3.org/2000/svg">
<path d="M8.63442 17.0542C7.28563 15.3574 6.54597 14.1391 6.00211 13.0731C5.2407 11.5938 5.21894 9.8317 5.91509 8.30887L8.24283 3.39233" stroke="#B5D0F9" stroke-width="3" stroke-miterlimit="10" stroke-linecap="round"/>
<path d="M17.5973 19.0771L23.21 26.1039L18.8155 29.7587L13.8337 23.5586" stroke="#B5D0F9" stroke-width="3" stroke-miterlimit="10" stroke-linecap="round"/>
<path d="M17.9672 3.39229L20.2949 8.33059C21.0128 9.85341 20.9911 11.6155 20.2079 13.0948C19.5988 14.2478 18.6198 15.7924 17.0535 17.7068L7.39443 29.7589L3 26.1041L13.0071 13.5734C16.9012 8.78743 17.9237 5.87232 18.0977 4.28423C18.2065 3.39229 17.6191 2.56562 16.7489 2.34807C15.9875 2.17404 14.8998 2 13.5292 2H12.7026C11.3103 2 10.2225 2.17404 9.48287 2.34807C8.61269 2.56562 8.02531 3.39229 8.13409 4.28423C8.30812 5.76355 9.00427 8.17831 12.311 12.4422" stroke="#B5D0F9" stroke-width="3" stroke-miterlimit="10" stroke-linecap="round"/>
<path d="M17.0534 7.50408C17.0534 7.50408 14.9433 7.15601 13.1159 7.15601C11.2667 7.15601 9.17828 7.50408 9.17828 7.50408" stroke="#B5D0F9" stroke-width="3" stroke-miterlimit="10" stroke-linecap="round"/>
</svg>
