<svg width="55" height="60" viewBox="0 0 55 60" fill="none" xmlns="http://www.w3.org/2000/svg">
<path d="M20.6658 44.5517C20.033 35.0606 12.7565 39.8061 11.8074 26.9932C11.3329 18.9258 18.7675 12.282 27.4677 12.282C36.1678 12.282 43.7607 18.9258 43.1279 26.9932C42.337 37.9079 36.9587 35.6933 34.9023 41.5462" stroke="white" stroke-width="2.7" stroke-miterlimit="22.9256" stroke-linecap="round" stroke-linejoin="round"/>
<path d="M20.9821 55.941L35.0605 52.1446" stroke="white" stroke-width="2.7" stroke-miterlimit="22.9256" stroke-linecap="round" stroke-linejoin="round"/>
<path d="M20.9821 50.5628L35.0605 46.7663" stroke="white" stroke-width="2.7" stroke-miterlimit="22.9256" stroke-linecap="round" stroke-linejoin="round"/>
<path d="M20.9821 45.1844L35.0605 41.5462" stroke="white" stroke-width="2.7" stroke-miterlimit="22.9256" stroke-linecap="round" stroke-linejoin="round"/>
<path d="M32.5295 54.2009C32.5295 56.5737 30.3149 58.6301 27.4676 58.6301C25.7275 58.6301 24.1457 57.8392 23.1966 56.7319" stroke="white" stroke-width="2.7" stroke-miterlimit="22.9256" stroke-linecap="round" stroke-linejoin="round"/>
<path d="M28.1005 2.00009V6.74562" stroke="white" stroke-width="2.7" stroke-miterlimit="22.9256" stroke-linecap="round" stroke-linejoin="round"/>
<path d="M45.1843 8.64386L41.8624 11.9657" stroke="white" stroke-width="2.7" stroke-miterlimit="22.9256" stroke-linecap="round" stroke-linejoin="round"/>
<path d="M53.0936 26.9932H48.3481" stroke="white" stroke-width="2.7" stroke-miterlimit="22.9256" stroke-linecap="round" stroke-linejoin="round"/>
<path d="M44.5515 44.7099L41.2297 41.388" stroke="white" stroke-width="2.7" stroke-miterlimit="22.9256" stroke-linecap="round" stroke-linejoin="round"/>
<path d="M10.542 8.64386L13.8639 11.9657" stroke="white" stroke-width="2.7" stroke-miterlimit="22.9256" stroke-linecap="round" stroke-linejoin="round"/>
<path d="M2 26.0441H6.74553" stroke="white" stroke-width="2.7" stroke-miterlimit="22.9256" stroke-linecap="round" stroke-linejoin="round"/>
<path d="M9.90918 44.7099L13.2311 41.388" stroke="white" stroke-width="2.7" stroke-miterlimit="22.9256" stroke-linecap="round" stroke-linejoin="round"/>
<path d="M20.5076 29.0496L25.0949 34.2697L35.2187 22.7222" stroke="white" stroke-width="2.7" stroke-miterlimit="22.9256" stroke-linecap="round" stroke-linejoin="round"/>
</svg>
