<svg width="52" height="37" viewBox="0 0 52 37" fill="none" xmlns="http://www.w3.org/2000/svg">
<path d="M25.8196 24.34C19.1976 28.6835 12.2551 31.9589 7.62676 33.917C5.02778 35.0207 2.14399 33.1338 2.07278 30.3212L1.68115 10.2058C1.57435 4.65182 6.48749 0.308321 12.0059 1.09157C21.5473 2.44447 34.293 4.01098 43.158 3.47694C46.3978 3.29893 48.4628 6.85917 46.7183 9.56496C43.2292 14.9053 36.8564 21.5986 25.8196 24.34Z" stroke="#254078" stroke-width="2" stroke-miterlimit="10" stroke-linejoin="round"/>
<path d="M25.8196 24.34C25.8196 24.34 29.4867 19.9965 26.8521 9.20898" stroke="#254078" stroke-width="2" stroke-miterlimit="10" stroke-linecap="round" stroke-linejoin="round"/>
<path d="M9.65607 1.05591L13.6079 4.93658L11.0446 7.92718L14.6048 11.4518L11.899 14.3356L15.0676 17.5754" stroke="#254078" stroke-width="2" stroke-miterlimit="10" stroke-linecap="round" stroke-linejoin="round"/>
<path d="M16.0289 1.62561L19.1263 4.68742L16.8122 7.35761L19.2688 9.67177" stroke="#254078" stroke-width="2" stroke-miterlimit="10" stroke-linecap="round" stroke-linejoin="round"/>
<path d="M44.1523 28.7616C44.1523 26.3087 42.4722 24.3018 40.4562 24.3018C38.4401 24.3018 36.8161 26.3087 36.8161 28.8173C36.8161 31.2702 38.4961 33.2772 40.5122 33.2772C42.5282 33.2214 44.1523 31.2145 44.1523 28.7616Z" stroke="#254078" stroke-width="2" stroke-miterlimit="10" stroke-linecap="round" stroke-linejoin="round"/>
<path d="M30.2079 31.6047C38.0481 37.7928 46.8404 35.6186 50.8725 31.7162" stroke="#254078" stroke-width="2" stroke-miterlimit="10" stroke-linecap="round" stroke-linejoin="round"/>
<path d="M50.9844 28.2046C44.3763 22.4068 34.856 23.02 29.9279 28.5948" stroke="#254078" stroke-width="2" stroke-miterlimit="10" stroke-linecap="round" stroke-linejoin="round"/>
</svg>
