<svg width="47" height="47" viewBox="0 0 47 47" fill="none" xmlns="http://www.w3.org/2000/svg">
<path d="M42.5778 21.3477C43.0486 19.9545 43.2297 19.0472 43.2297 19.0472C45.1129 10.5906 40.6946 6.08693 38.0509 4.59649C36.7472 3.85127 35.2261 3.49486 33.6689 3.55966C30.8441 3.68927 29.6852 5.2445 29.1781 6.73494C28.816 7.86897 27.0777 7.99857 26.5344 6.92935C25.629 5.2121 25.0858 3.81887 25.0858 1.55081V1" stroke="#254078" stroke-width="2" stroke-miterlimit="10" stroke-linecap="round"/>
<path d="M39.898 11.7572C38.9926 8.64675 36.7835 7.31832 36.4213 7.12392C35.7332 6.73511 34.9003 6.5083 34.1035 6.5083" stroke="#254078" stroke-width="2" stroke-miterlimit="10" stroke-linecap="round"/>
<path d="M6.7247 41.2418C6.7247 39.9133 6.68848 31.8779 6.86956 30.3875C6.9782 29.2859 8.57168 28.8647 9.3322 29.7395C9.87543 30.3227 10.4187 30.8735 10.9619 31.3919C14.7283 34.9236 19.6536 36.6733 24.6151 36.3817" stroke="#254078" stroke-width="2" stroke-miterlimit="10" stroke-linecap="round"/>
<path d="M9.80304 17.6864V22.2225C9.80304 23.0001 10.3463 23.6158 11.0706 24.037C12.8089 25.0738 14.5835 25.5274 14.5835 25.5274C19.8709 26.7262 24.3254 23.9074 24.8324 19.5009C25.1946 16.196 23.3114 13.2475 23.3114 13.2475C20.0158 7.73937 19.9071 2.39323 19.9071 2.39323V1" stroke="#254078" stroke-width="2" stroke-miterlimit="10" stroke-linecap="round"/>
<path d="M1.6546 41.2418V29.3831C1.6546 26.6614 3.5378 25.009 4.73291 24.2314C5.34857 23.8426 5.71072 23.1945 5.71072 22.5141V17.6864" stroke="#254078" stroke-width="2" stroke-miterlimit="10" stroke-linecap="round"/>
<path d="M27.0415 38.8114C27.0415 42.3107 30.2285 45.162 34.1397 45.162C37.4353 45.162 40.2239 43.1532 41.0206 40.3991C43.6643 40.0427 45.6562 38.0014 45.6562 35.539C45.6562 33.4653 44.2076 31.6833 42.1795 30.9704C43.8092 30.4196 45.0043 28.994 45.0043 27.3416C45.0043 25.2031 43.0487 23.4535 40.6585 23.4535C40.3687 23.4535 40.0428 23.4859 39.7531 23.5507C39.7531 23.4535 39.7893 23.3239 39.7893 23.2267C39.7893 21.801 38.5218 20.667 36.9283 20.667C35.3348 20.667 34.0673 21.801 34.0673 23.2267C34.0673 23.5831 34.1397 23.9395 34.3208 24.2635C31.4598 24.4255 29.1782 26.5639 29.1782 29.156C29.1782 30.7112 30.0112 32.1045 31.2787 33.0117C28.7436 34.0161 27.0415 36.2194 27.0415 38.8114Z" stroke="#254078" stroke-width="2" stroke-miterlimit="10" stroke-linecap="round"/>
<path d="M40.9844 40.3991C40.9844 40.3991 41.7087 37.483 38.8839 35.8954" stroke="#254078" stroke-width="2" stroke-miterlimit="10" stroke-linecap="round"/>
<path d="M42.1432 30.9704C42.1432 30.9704 39.1736 31.6833 38.0509 29.156" stroke="#254078" stroke-width="2" stroke-miterlimit="10" stroke-linecap="round"/>
<path d="M32.5463 35.6362L32.4738 35.6686C31.0615 36.2194 30.1561 37.4831 30.1561 38.8763C30.1561 40.8204 31.9306 42.3756 34.0673 42.3756C35.6246 42.3756 36.9646 41.5656 37.6164 40.3343" stroke="#254078" stroke-width="2" stroke-miterlimit="10" stroke-linecap="round"/>
</svg>
