<svg width="47" height="47" viewBox="0 0 47 47" fill="none" xmlns="http://www.w3.org/2000/svg">
<path d="M38.665 35.0273L39.7067 33.7079C42.068 30.826 40.0192 26.4857 36.269 26.5205C32.5535 26.5205 30.5047 30.8954 32.9007 33.7426L42.4847 45.2355L45.2279 42.805L35.2273 30.9996C34.1855 29.7496 33.9772 28.2566 34.3939 26.9371" stroke="#254078" stroke-width="2" stroke-miterlimit="10" stroke-linecap="round"/>
<path d="M30.2269 45.305L36.3384 37.8398" stroke="#254078" stroke-width="2" stroke-miterlimit="10" stroke-linecap="round"/>
<path d="M37.137 23.708C37.137 22.3886 37.7621 21.2428 38.7691 20.5484C37.7621 19.8539 37.137 18.7081 37.1023 17.4234C37.1023 16.0345 37.8315 14.8193 38.9427 14.1595C38.1093 13.4998 37.5537 12.4582 37.5537 11.3124C37.5537 10.8957 37.7273 10.3054 37.9704 9.68044C38.3176 8.84712 37.4843 8.04852 36.6509 8.32629C36.0953 8.53462 35.5744 8.67351 35.1924 8.67351C33.9424 8.67351 32.8659 8.04852 32.2062 7.11103C31.5464 8.04852 30.4699 8.67351 29.2546 8.67351C28.0045 8.67351 26.928 8.04852 26.2683 7.11103C25.6085 8.04852 24.5321 8.63879 23.3167 8.67351C22.0666 8.67351 20.9554 8.04852 20.2957 7.11103C19.6359 8.04852 18.5595 8.63879 17.3441 8.63879C16.0246 8.63879 14.8439 7.94435 14.2189 6.86798C13.5591 7.7013 12.5174 8.25685 11.3715 8.25685C10.9548 8.25685 10.0867 7.94435 9.21859 7.63186C8.41993 7.31936 7.62126 8.04852 7.86433 8.84712C8.07268 9.57628 8.2463 10.2707 8.28103 10.5832C8.28103 11.8332 7.69071 12.9096 6.75315 13.5693C7.69071 14.229 8.31575 15.3054 8.31575 16.5553C8.31575 17.8053 7.72544 18.8817 6.78788 19.5414C7.72544 20.2011 8.35048 21.2775 8.35048 22.5275C8.35048 23.083 8.00323 23.9164 7.65599 24.715C7.41292 25.2705 7.96851 25.8261 8.48937 25.5483C9.25331 25.1663 10.1214 24.8538 10.677 24.8191C11.8924 24.8191 13.0035 25.4094 13.6633 26.3469C14.3231 25.4094 15.3995 24.7844 16.6149 24.7844C17.865 24.7844 18.9414 25.3747 19.6012 26.3122C20.3304 25.2358 21.6152 24.6108 23.0389 24.7844C24.671 24.9927 25.9905 26.3122 26.1988 27.9441C26.3724 29.4024 25.7127 30.6871 24.6015 31.4163C25.5738 32.076 26.2336 33.1524 26.2336 34.4371C26.2336 35.7565 25.5391 36.9023 24.5321 37.5273C24.6362 37.6315 24.7751 37.7009 24.8793 37.8051C25.678 38.6037 26.0947 39.7495 25.921 40.9647C25.7474 42.18 24.914 43.1869 23.8376 43.673V43.7078C23.8376 44.5758 23.1431 45.305 22.2402 45.305C21.3721 45.305 20.6429 44.6105 20.6429 43.7078V43.5342C20.3304 43.3605 20.0179 43.1522 19.7748 42.9092C19.115 42.2495 18.6984 41.3467 18.6984 40.3398C18.6984 39.0203 19.3928 37.8745 20.3998 37.2495C19.5317 36.5898 18.9761 35.5482 18.9761 34.4023C18.9761 34.0551 19.1845 33.4301 19.497 32.7704C19.8443 31.9718 19.0456 31.1732 18.2469 31.5204C17.5872 31.7982 16.9969 32.0413 16.6496 32.0413C15.4343 32.0413 14.3231 31.451 13.6633 30.5135C13.0035 31.451 11.9271 32.076 10.7117 32.076C9.49638 32.076 8.3852 31.4857 7.72544 30.5482C6.99622 31.6246 5.71142 32.2496 4.28772 32.076C2.65567 31.8676 1.37087 30.5829 1.16252 28.951C0.988901 27.5274 1.61394 26.2427 2.6904 25.5136C1.75284 24.8538 1.1278 23.7775 1.1278 22.5275C1.1278 21.2775 1.71811 20.2011 2.65567 19.5414C1.71811 18.8817 1.09307 17.8053 1.09307 16.5553C1.09307 15.3054 1.68339 14.229 2.62095 13.5693C1.68339 12.9096 1.05835 11.8332 1.05835 10.5832C1.05835 9.19434 1.85701 7.94435 3.00292 7.35408C2.20426 6.72909 1.71811 5.75688 1.71811 4.64579C1.71811 2.63192 3.31544 1 5.32945 1C5.32945 1 5.32945 1 5.36418 1C5.36418 1 5.36418 1 5.3989 1C6.64898 1 7.72544 1.62499 8.3852 2.56248C9.04497 1.62499 10.1214 1 11.3368 1C12.6563 1 13.8022 1.69444 14.4272 2.70137C14.5314 2.5972 14.6009 2.45831 14.705 2.35415C15.3648 1.69444 16.2676 1.27777 17.2747 1.27777C18.5595 1.27777 19.6706 1.90277 20.3304 2.9097C20.9902 2.00693 22.0666 1.38194 23.2473 1.38194C24.4973 1.38194 25.5738 2.00693 26.2336 2.94442C26.8933 2.00693 27.9698 1.41666 29.1851 1.38194C30.4352 1.38194 31.5117 2.00693 32.1714 2.94442C32.8312 2.00693 33.9076 1.38194 35.123 1.38194C36.4425 1.38194 37.5884 2.07637 38.2135 3.08331C38.3176 2.97914 38.3871 2.84025 38.4913 2.73609C39.2899 1.93749 40.4358 1.52083 41.6859 1.69444C43.1791 1.93749 44.4291 3.15275 44.6722 4.64579C44.8806 5.89577 44.4639 7.04159 43.6652 7.84019C43.5263 7.97907 43.3527 8.11796 43.1791 8.25685C44.1166 8.91656 44.7417 9.99294 44.7417 11.2429C44.7417 12.4929 44.1166 13.604 43.1096 14.2637C44.0819 14.9581 44.7069 16.0692 44.7069 17.3539C44.7069 18.6734 44.0819 19.8192 43.0749 20.5136C44.0819 21.2081 44.7069 22.3539 44.7417 23.6386C44.7417 25.0622 43.9777 26.2774 42.8665 26.9719" stroke="#254078" stroke-width="2" stroke-miterlimit="10" stroke-linecap="round"/>
</svg>
