<svg width="48" height="44" viewBox="0 0 48 44" fill="none" xmlns="http://www.w3.org/2000/svg">
<g clip-path="url(#clip0)">
<path d="M41.8349 22.5862C42.422 20.8276 42.6422 19.6207 42.6422 19.6207C44.5138 10.6207 40 5.82756 37.3211 4.24135C35.9633 3.48273 34.422 3.10342 32.844 3.17238C29.9816 3.31032 28.8073 4.96549 28.3303 6.5517C27.9633 7.75859 26.2018 7.89652 25.6514 6.79307C24.6972 4.96549 24.1468 3.48273 24.1468 1.10342V0.517212" stroke="#254078" stroke-width="2" stroke-miterlimit="10" stroke-linecap="round"/>
<path d="M39.2294 11.8965C38.2752 8.62067 36.0367 7.1724 35.6697 6.9655C34.9725 6.55171 34.1284 6.31033 33.3211 6.34481" stroke="#254078" stroke-width="2" stroke-miterlimit="10" stroke-linecap="round"/>
<path d="M5.76145 43.4137C5.76145 41.9999 5.68806 33.4482 5.83485 31.862C5.94494 30.6896 7.55962 30.2413 8.33026 31.1379C8.88072 31.7586 9.43118 32.3448 9.98164 32.8965C15.7064 38.4482 24 39.862 31.1193 35.9999C31.8532 35.5861 32.5504 35.1723 33.211 34.6896" stroke="#254078" stroke-width="2" stroke-miterlimit="10" stroke-linecap="round"/>
<path d="M8.77063 18.3448L8.80733 23.1724C8.80733 24 9.35779 24.6551 10.0917 25.1034C11.8532 26.2069 13.6514 26.6551 13.6514 26.6551C19.0092 27.931 23.4862 24.8965 24 20.2069C24.367 16.6896 22.422 13.5517 22.422 13.5517C19.0459 7.68963 18.8991 1.99997 18.8991 1.99997V0.586182" stroke="#254078" stroke-width="2" stroke-miterlimit="10" stroke-linecap="round"/>
<path d="M0.62384 43.4482L0.550446 30.8275C0.550446 27.931 2.422 26.1724 3.63301 25.3103C4.25687 24.8965 4.62384 24.2069 4.62384 23.4827L4.58714 18.3103" stroke="#254078" stroke-width="2" stroke-miterlimit="10" stroke-linecap="round"/>
<path d="M39.8532 32.5173L41.0275 31.138C43.6697 28.1035 41.3578 23.5518 37.1743 23.5518C33.0275 23.5862 30.7523 28.1724 33.4312 31.1724L44.1835 43.2759L47.2294 40.7242L36.0367 28.2759C34.8624 26.9655 34.6422 25.3793 35.0826 24" stroke="#254078" stroke-width="2" stroke-miterlimit="10" stroke-linecap="round"/>
<path d="M30.422 43.3104L37.2477 35.4828" stroke="#254078" stroke-width="2" stroke-miterlimit="10" stroke-linecap="round"/>
</g>
<defs>
<clipPath id="clip0">
<rect width="48" height="44" fill="white"/>
</clipPath>
</defs>
</svg>
