<svg width="53" height="49" viewBox="0 0 53 49" fill="none" xmlns="http://www.w3.org/2000/svg">
<path d="M43.5685 36.4334L44.7066 35.0372C47.2672 31.9656 45.0266 27.3583 40.9724 27.3583C36.9537 27.3932 34.7487 32.0355 37.3449 35.0721L47.765 47.3235L50.7168 44.7406L39.8699 32.1402C38.7319 30.8138 38.5185 29.2082 38.9452 27.812" stroke="#254078" stroke-width="2" stroke-miterlimit="10" stroke-linecap="round"/>
<path d="M34.4286 47.3585L41.0435 39.4352" stroke="#254078" stroke-width="2" stroke-miterlimit="10" stroke-linecap="round"/>
<path d="M3.77763 29.7362C3.50621 30.4961 4.88841 29.996 6.48847 29.7362C9.26586 29.2852 9.17824 29.5144 11.3767 28.863C11.9467 28.7002 12.4325 28.5962 13.0024 28.3791C15.2552 27.4834 22.2349 22.7309 23.782 30.6834C25.5462 39.8844 24.5423 42.0511 25.9808 47.7237" stroke="#254078" stroke-width="2" stroke-miterlimit="10" stroke-linecap="round"/>
<path d="M30.928 47.1739L31.3324 38.9437V34.0534C31.3324 34.0534 31.2987 30.121 33.8531 26.7936C34.8614 25.4828 35.7017 24.0376 36.2058 22.4579C37.7519 17.7525 38.6258 8.50967 28.4755 3.09843C28.4755 3.09843 17.048 -2.81697 8.27575 5.21587C6.66246 6.69472 5.45249 8.57689 4.88112 10.6943C4.44419 12.274 4.17531 14.3915 4.4778 16.9122C4.51141 17.2147 4.57863 17.4836 4.61224 17.7861C4.74668 18.4583 4.91473 20.3741 3.70476 22.2226L1.38566 25.6173C1.38566 25.6173 0.679844 27.0961 2.42757 27.3986C2.42757 27.3986 2.96534 27.4322 3.36866 27.6339C3.63754 27.7347 3.70476 28.0708 3.53671 28.3061C3.26783 28.6086 3.03256 29.1127 3.77198 29.516C4.00725 29.6505 4.07447 29.9194 3.94003 30.121C3.70476 30.5244 3.57032 31.1293 4.57863 31.4318C4.78029 31.499 4.94834 31.7007 4.88112 31.936C4.64585 33.1459 4.24253 36.7422 7.53633 36.675L10.2588 36.4061C12.1745 36.2045 13.9559 37.5153 14.292 39.4311C14.5272 40.6746 14.292 44.8212 14.292 47.1739" stroke="#254078" stroke-width="2" stroke-miterlimit="10" stroke-linecap="round"/>
</svg>
