<svg width="48" height="47" viewBox="0 0 48 47" fill="none" xmlns="http://www.w3.org/2000/svg">
<path d="M39.3854 34.8837L40.4226 33.5699C42.7737 30.7001 40.7338 26.3782 36.9997 26.4128C33.3001 26.4128 31.2602 30.7693 33.6459 33.6045L43.1886 45.0489L45.9201 42.6286L35.9624 30.873C34.9251 29.6283 34.7177 28.1416 35.1326 26.8277" stroke="#254078" stroke-width="2" stroke-miterlimit="10" stroke-linecap="round"/>
<path d="M30.9836 45.1181L37.0688 37.6844" stroke="#254078" stroke-width="2" stroke-miterlimit="10" stroke-linecap="round"/>
<path d="M37.864 23.6122C37.864 22.2984 38.4864 21.1574 39.4891 20.4659C38.4864 19.7744 37.864 18.6334 37.8295 17.3541C37.8295 15.9711 38.5555 14.761 39.6619 14.104C38.8321 13.4471 38.2789 12.4098 38.2789 11.2689C38.2789 10.854 38.4518 10.2662 38.6938 9.64382C39.0396 8.81402 38.2098 8.01878 37.38 8.29539C36.8268 8.50284 36.3081 8.64114 35.9278 8.64114C34.6831 8.64114 33.6113 8.01878 32.9543 7.08525C32.2974 8.01878 31.2256 8.64114 30.0154 8.64114C28.7707 8.64114 27.6989 8.01878 27.042 7.08525C26.385 8.01878 25.3132 8.60656 24.1031 8.64114C22.8584 8.64114 21.7519 8.01878 21.095 7.08525C20.4381 8.01878 19.3663 8.60656 18.1561 8.60656C16.8423 8.60656 15.6667 7.91506 15.0443 6.84322C14.3874 7.67303 13.3502 8.22624 12.2092 8.22624C11.7943 8.22624 10.9299 7.91506 10.0655 7.60388C9.27027 7.2927 8.47504 8.01878 8.71706 8.81402C8.92452 9.5401 9.09739 10.2316 9.13197 10.5428C9.13197 11.7875 8.54419 12.8593 7.61065 13.5163C8.54419 14.1732 9.16654 15.245 9.16654 16.4897C9.16654 17.7344 8.57876 18.8063 7.64523 19.4632C8.57876 20.1201 9.20112 21.192 9.20112 22.4367C9.20112 22.9899 8.85537 23.8197 8.50961 24.6149C8.26759 25.1681 8.82079 25.7213 9.33942 25.4447C10.1001 25.0644 10.9645 24.7532 11.5177 24.7187C12.7278 24.7187 13.8342 25.3064 14.4911 26.24C15.1481 25.3064 16.2199 24.6841 17.43 24.6841C18.6747 24.6841 19.7466 25.2719 20.4035 26.2054C21.1296 25.1336 22.4089 24.5112 23.8265 24.6841C25.4515 24.8915 26.7654 26.2054 26.9728 27.8304C27.1457 29.2826 26.4888 30.5619 25.3824 31.288C26.3505 31.9449 27.0074 33.0167 27.0074 34.296C27.0074 35.6099 26.3159 36.7509 25.3132 37.3732C25.4169 37.4769 25.5552 37.5461 25.659 37.6498C26.4542 38.445 26.8691 39.586 26.6962 40.7962C26.5233 42.0063 25.6935 43.009 24.6217 43.493V43.5276C24.6217 44.392 23.9302 45.1181 23.0312 45.1181C22.1669 45.1181 21.4408 44.4266 21.4408 43.5276V43.3547C21.1296 43.1819 20.8184 42.9744 20.5764 42.7324C19.9195 42.0754 19.5046 41.1765 19.5046 40.1738C19.5046 38.8599 20.1961 37.719 21.1987 37.0966C20.3344 36.4397 19.7812 35.4024 19.7812 34.2614C19.7812 33.9157 19.9886 33.2933 20.2998 32.6364C20.6455 31.8412 19.8503 31.0459 19.0551 31.3917C18.3981 31.6683 17.8104 31.9103 17.4646 31.9103C16.2545 31.9103 15.1481 31.3225 14.4911 30.389C13.8342 31.3225 12.7624 31.9449 11.5522 31.9449C10.3421 31.9449 9.23569 31.3571 8.57876 30.4236C7.85268 31.4954 6.5734 32.1178 5.15581 31.9449C3.53077 31.7374 2.25149 30.4581 2.04403 28.8331C1.87116 27.4155 2.49351 26.1362 3.56535 25.4102C2.63181 24.7532 2.00946 23.6814 2.00946 22.4367C2.00946 21.192 2.59724 20.1201 3.53077 19.4632C2.59724 18.8063 1.97488 17.7344 1.97488 16.4897C1.97488 15.245 2.56266 14.1732 3.4962 13.5163C2.56266 12.8593 1.94031 11.7875 1.94031 10.5428C1.94031 9.15977 2.73554 7.91506 3.87652 7.32728C3.08129 6.70492 2.59724 5.73682 2.59724 4.63041C2.59724 2.62504 4.1877 1 6.19307 1C6.19307 1 6.19307 1 6.22764 1C6.22764 1 6.22764 1 6.26222 1C7.50693 1 8.57876 1.62236 9.23569 2.55589C9.89262 1.62236 10.9645 1 12.1746 1C13.4885 1 14.6294 1.69151 15.2518 2.69419C15.3555 2.59046 15.4247 2.45216 15.5284 2.34844C16.1853 1.69151 17.0843 1.2766 18.087 1.2766C19.3663 1.2766 20.4727 1.89896 21.1296 2.90164C21.7865 2.00268 22.8584 1.38033 24.0339 1.38033C25.2786 1.38033 26.3505 2.00268 27.0074 2.93622C27.6643 2.00268 28.7362 1.4149 29.9463 1.38033C31.191 1.38033 32.2628 2.00268 32.9198 2.93622C33.5767 2.00268 34.6485 1.38033 35.8587 1.38033C37.1725 1.38033 38.3135 2.07183 38.9359 3.07452C39.0396 2.97079 39.1087 2.83249 39.2125 2.72876C40.0077 1.93353 41.1487 1.51863 42.3934 1.69151C43.8801 1.93353 45.1248 3.14367 45.3669 4.63041C45.5743 5.87512 45.1594 7.0161 44.3642 7.81133C44.2259 7.94963 44.053 8.08793 43.8801 8.22624C44.8137 8.88317 45.436 9.955 45.436 11.1997C45.436 12.4444 44.8137 13.5508 43.811 14.2078C44.7791 14.8993 45.4014 16.0057 45.4014 17.285C45.4014 18.5988 44.7791 19.7398 43.7764 20.4313C44.7791 21.1228 45.4014 22.2638 45.436 23.5431C45.436 24.9607 44.6754 26.1708 43.569 26.8623" stroke="#254078" stroke-width="2" stroke-miterlimit="10" stroke-linecap="round"/>
</svg>
