<svg width="43" height="45" viewBox="0 0 43 45" fill="none" xmlns="http://www.w3.org/2000/svg">
<g clip-path="url(#clip0)">
<path d="M22.2679 27.1552C24.3882 27.1552 26.1071 25.4184 26.1071 23.2759C26.1071 21.1334 24.3882 19.3966 22.2679 19.3966C20.1475 19.3966 18.4286 21.1334 18.4286 23.2759C18.4286 25.4184 20.1475 27.1552 22.2679 27.1552Z" stroke="#254078" stroke-width="2" stroke-miterlimit="10" stroke-linecap="round" stroke-linejoin="round"/>
<path d="M8.44643 27.931C11.0571 26.2241 13.8214 24.9052 13.8214 21.7241C13.8214 18.5431 10.6732 14.9741 8.44643 12.4138C10.5964 14.6638 13.5911 15.5172 16.6625 15.5172C20.7321 15.5172 22.575 14.0431 24.5714 11.6379C24.0339 13.4224 24.8786 15.4397 26.4911 16.3707C28.1036 17.3017 30.1768 16.8362 31.4821 15.5172C30.1 17.3793 29.8696 20.0948 30.8678 22.1121C31.8661 24.2069 33.8625 25.5259 36.0893 25.6035C29.025 25.6035 29.1786 28.2414 29.1786 32.5862C27.4125 31.0345 24.8786 30.4914 22.575 31.1121C20.2714 31.7328 18.5054 33.4397 17.6607 35.6897C18.3518 33.2069 17.4304 30.4914 15.4339 28.8621C13.4375 27.1552 10.75 26.7672 8.44643 27.931Z" stroke="#254078" stroke-width="2" stroke-miterlimit="10" stroke-linecap="round" stroke-linejoin="round"/>
<path d="M24.5714 11.6379C25.2625 7.9914 25.0321 4.26726 23.9571 0.775879" stroke="#254078" stroke-width="2" stroke-miterlimit="10" stroke-linecap="round" stroke-linejoin="round"/>
<path d="M19.9643 1.62927C20.5018 4.18962 22.4214 6.28445 24.9554 6.90514" stroke="#254078" stroke-width="2" stroke-miterlimit="10" stroke-linecap="round" stroke-linejoin="round"/>
<path d="M24.8786 9.31041C27.2589 7.99145 29.1018 5.74145 29.9464 3.10352" stroke="#254078" stroke-width="2" stroke-miterlimit="10" stroke-linecap="round" stroke-linejoin="round"/>
<path d="M8.44643 12.4139C6.21964 10.1639 4.45357 7.60353 3.07143 4.81042" stroke="#254078" stroke-width="2" stroke-miterlimit="10" stroke-linecap="round" stroke-linejoin="round"/>
<path d="M7.29464 11.2501C8.29286 8.61214 8.67679 5.81903 8.44643 3.10352" stroke="#254078" stroke-width="2" stroke-miterlimit="10" stroke-linecap="round" stroke-linejoin="round"/>
<path d="M0.767858 9.3103C2.53393 9.69823 4.37679 9.85341 6.14286 9.77582" stroke="#254078" stroke-width="2" stroke-miterlimit="10" stroke-linecap="round" stroke-linejoin="round"/>
<path d="M31.4821 15.5173C32.7107 11.8707 34.9375 8.68967 37.7786 6.20691" stroke="#254078" stroke-width="2" stroke-miterlimit="10" stroke-linecap="round" stroke-linejoin="round"/>
<path d="M32.0964 13.9655C35.475 14.1207 38.8536 13.0345 41.5411 10.8621" stroke="#254078" stroke-width="2" stroke-miterlimit="10" stroke-linecap="round" stroke-linejoin="round"/>
<path d="M36.7804 13.3448C38.3161 14.5862 40.3125 15.1293 42.2321 14.9742" stroke="#254078" stroke-width="2" stroke-miterlimit="10" stroke-linecap="round" stroke-linejoin="round"/>
<path d="M36.0893 25.6034C38.0857 24.8276 40.1589 24.5172 42.2321 24.5948" stroke="#254078" stroke-width="2" stroke-miterlimit="10" stroke-linecap="round" stroke-linejoin="round"/>
<path d="M37.1643 25.2156C39.1607 26.2242 40.85 27.6207 42.2321 29.3276" stroke="#254078" stroke-width="2" stroke-miterlimit="10" stroke-linecap="round" stroke-linejoin="round"/>
<path d="M29.1786 32.5862C32.3268 33.9827 35.0143 36.3103 36.8571 39.2586" stroke="#254078" stroke-width="2" stroke-miterlimit="10" stroke-linecap="round" stroke-linejoin="round"/>
<path d="M29.1786 32.5862C29.1786 35.3793 29.9464 38.0172 31.4821 40.3448" stroke="#254078" stroke-width="2" stroke-miterlimit="10" stroke-linecap="round" stroke-linejoin="round"/>
<path d="M32.3268 34.4483C34.3232 33.9828 36.3964 33.9052 38.4696 34.138" stroke="#254078" stroke-width="2" stroke-miterlimit="10" stroke-linecap="round" stroke-linejoin="round"/>
<path d="M17.6607 35.6897C15.1268 36.6207 12.8232 37.9397 10.6732 39.569" stroke="#254078" stroke-width="2" stroke-miterlimit="10" stroke-linecap="round" stroke-linejoin="round"/>
<path d="M17.6607 35.6897C17.6607 36.3104 17.7375 37.0087 17.8143 37.6294C18.0446 39.1035 18.7357 40.4225 19.8107 41.5087C20.3482 41.9742 20.8857 42.3621 21.6536 42.6725" stroke="#254078" stroke-width="2" stroke-miterlimit="10" stroke-linecap="round" stroke-linejoin="round"/>
<path d="M17.8143 37.6294C16.5089 38.7932 16.0482 42.9053 16.125 44.2242" stroke="#254078" stroke-width="2" stroke-miterlimit="10" stroke-linecap="round" stroke-linejoin="round"/>
<path d="M8.44643 27.931C5.68214 29.7931 3.14821 31.8879 0.767858 34.2155" stroke="#254078" stroke-width="2" stroke-miterlimit="10" stroke-linecap="round" stroke-linejoin="round"/>
<path d="M6.14286 29.5603C5.06786 32.5086 4.60714 35.6896 4.60714 38.7931" stroke="#254078" stroke-width="2" stroke-miterlimit="10" stroke-linecap="round" stroke-linejoin="round"/>
<path d="M8.44643 27.9311C5.60536 27.9311 3.14821 27.1552 0.767858 25.6035" stroke="#254078" stroke-width="2" stroke-miterlimit="10" stroke-linecap="round" stroke-linejoin="round"/>
</g>
<defs>
<clipPath id="clip0">
<rect width="43" height="45" fill="white"/>
</clipPath>
</defs>
</svg>
