<svg width="63" height="43" viewBox="0 0 63 43" fill="none" xmlns="http://www.w3.org/2000/svg">
<path d="M53.9605 29.169L55.1057 27.7375C57.6825 24.5881 55.4278 19.8641 51.348 19.8641C47.304 19.8999 45.0851 24.6597 47.6976 27.7732L58.1835 40.3348L61.1539 37.6865L50.2386 24.8029C49.0934 23.4429 48.8786 21.7967 49.3081 20.3652" stroke="#254078" stroke-width="2" stroke-miterlimit="10" stroke-linecap="round"/>
<path d="M44.763 40.3704L51.4195 32.2466" stroke="#254078" stroke-width="2" stroke-miterlimit="10" stroke-linecap="round"/>
<path d="M32.2174 23.5232C28.0355 25.6141 27.7981 30.2282 21.0167 31.5838C16.5552 32.4756 11.2733 29.2629 10.1317 23.5523C8.99013 17.8416 12.5062 12.2207 12.2743 11.0607C11.9176 9.2761 10.4901 7.70557 7.09942 8.38337C4.95792 8.81146 2.33386 17.038 3.88567 24.8009C5.43749 32.5638 12.8962 39.7027 21.373 38.0082C26.1913 37.045 31.6347 31.3171 33.8654 30.8712C36.0962 30.4253 38.7907 32.2993 39.2187 34.4408C39.4685 35.69 43.31 35.5227 45.8084 35.0233" stroke="#254078" stroke-width="2" stroke-miterlimit="10" stroke-linejoin="round"/>
<path d="M46.3312 29.2733C46.3312 29.2733 44.0198 30.2063 42.8849 30.4332C40.3934 30.9312 38.7564 32.128 39.2161 34.4274" stroke="#254078" stroke-width="2" stroke-miterlimit="10" stroke-linejoin="round"/>
<path d="M44.763 24.046C44.763 24.046 41.3836 22.9138 39.1691 22.9103C34.7094 22.9033 33.577 22.9015 29.1086 26.2751" stroke="#254078" stroke-width="2" stroke-miterlimit="10" stroke-linejoin="round"/>
<path d="M10.9177 15.4148C14.3622 12.2207 16.4683 8.36633 22.6251 7.13558C29.228 5.81565 28.7818 6.8328 35.2955 5.5307C38.5077 4.88857 39.5786 3.74657 43.1477 3.03309C45.1108 2.64068 49.7327 3.47985 50.2856 6.24595C51.0526 10.0828 48.4827 11.6173 45.4487 14.5436C41.7187 18.1659 33.4536 21.0869 29.081 26.1368" stroke="#254078" stroke-width="2" stroke-miterlimit="10" stroke-linejoin="round"/>
<path d="M9.88214 20.447C11.3455 19.8761 12.9694 20.1083 14.0936 21.0899C15.2178 22.0715 15.7173 23.6419 15.2889 25.2123C14.8426 26.6934 13.6825 27.8533 12.1478 28.0673" stroke="#254078" stroke-width="1.5" stroke-miterlimit="10" stroke-linejoin="round"/>
<path d="M12.3098 14.023C13.7016 15.4151 15.9501 15.5224 17.3422 14.1306C18.7521 12.828 18.9486 10.5616 17.6282 9.06248" stroke="#254078" stroke-width="1.5" stroke-miterlimit="10" stroke-linejoin="round"/>
<path d="M14.7544 15.1117C15.486 15.9862 15.7179 17.1462 15.5572 18.1991C15.3965 19.2519 14.7718 20.3048 13.8616 20.8579" stroke="#254078" stroke-width="1.5" stroke-miterlimit="10" stroke-linejoin="round"/>
<path d="M18.2346 13.0243C19.8584 13.7204 21.7144 13.2566 22.821 11.8291C23.8383 10.4194 23.8206 8.47424 22.6251 7.13572" stroke="#254078" stroke-width="1.5" stroke-miterlimit="10" stroke-linejoin="round"/>
<path d="M15.5215 18.4847C17.074 19.2878 18.9656 19.0025 20.2863 17.7178C21.5356 16.5401 21.9819 14.595 21.2861 12.971" stroke="#254078" stroke-width="1.5" stroke-miterlimit="10" stroke-linejoin="round"/>
<path d="M15.4852 24.338C17.0377 24.6772 18.6617 23.9814 19.6077 22.6788C20.5536 21.3761 20.5716 19.6094 19.6438 18.2174" stroke="#254078" stroke-width="1.5" stroke-miterlimit="10" stroke-linejoin="round"/>
<path d="M18.6082 23.7137C19.7502 24.7846 20.2676 26.4442 19.9284 27.9968C19.5892 29.5493 18.447 30.7983 16.8765 31.2979" stroke="#254078" stroke-width="1.5" stroke-miterlimit="10" stroke-linejoin="round"/>
<path d="M19.9641 27.7111C20.9814 26.7654 22.2841 26.3194 23.6047 26.4266C24.9253 26.5338 26.1922 27.3013 26.9595 28.3542" stroke="#254078" stroke-width="1.5" stroke-miterlimit="10" stroke-linejoin="round"/>
<path d="M20.286 20.5016C21.8029 20.1984 23.3375 20.9123 24.0869 22.34C24.8185 23.6785 24.6041 25.3917 23.6225 26.5158" stroke="#254078" stroke-width="1.5" stroke-miterlimit="10" stroke-linejoin="round"/>
<path d="M24.5152 23.5536C26.514 21.9477 29.405 22.0194 31.2429 23.7862" stroke="#254078" stroke-width="1.5" stroke-miterlimit="10" stroke-linejoin="round"/>
<path d="M22.3739 20.7339C22.963 19.0386 24.712 18.0395 26.4786 18.5214C28.2453 19.0034 29.3337 20.7346 28.9409 22.4834" stroke="#254078" stroke-width="1.5" stroke-miterlimit="10" stroke-linejoin="round"/>
<path d="M21.625 14.6664C23.9271 14.5774 25.8364 16.2372 26.1931 18.4857" stroke="#254078" stroke-width="1.5" stroke-miterlimit="10" stroke-linejoin="round"/>
<path d="M28.5663 20.1456C29.5658 18.6466 31.2255 17.6653 33.0636 17.5762C34.9017 17.4872 36.6326 18.2547 37.8282 19.5932" stroke="#254078" stroke-width="1.5" stroke-miterlimit="10" stroke-linejoin="round"/>
<path d="M35.6691 18.0763C36.2046 16.5773 37.4539 15.3997 38.9708 15.0964C40.5769 14.7754 42.1472 15.2038 43.3071 16.3639" stroke="#254078" stroke-width="1.5" stroke-miterlimit="10" stroke-linejoin="round"/>
<path d="M40.7196 15.025C40.8625 13.419 41.8798 12.0093 43.4324 11.4205C44.985 10.8318 46.6446 11.2424 47.7866 12.3132" stroke="#254078" stroke-width="1.5" stroke-miterlimit="10" stroke-linejoin="round"/>
<path d="M31.636 17.8617C31.2971 16.1663 32.2609 14.489 33.8849 13.7931C35.5268 13.1865 37.3113 13.7578 38.2569 15.239" stroke="#254078" stroke-width="1.5" stroke-miterlimit="10" stroke-linejoin="round"/>
<path d="M24.8549 15.9694C26.7467 13.8281 29.9233 13.4715 32.2966 15.1314" stroke="#254078" stroke-width="1.5" stroke-miterlimit="10" stroke-linejoin="round"/>
<path d="M23.4456 10.3121C25.8548 10.2945 27.9247 11.8294 28.7454 14.078" stroke="#254078" stroke-width="1.5" stroke-miterlimit="10" stroke-linejoin="round"/>
<path d="M27.0681 11.7224C28.3352 11.5619 29.4952 10.8661 30.2091 9.79542C30.923 8.72476 31.2265 7.45776 30.9768 6.20856" stroke="#254078" stroke-width="1.5" stroke-miterlimit="10" stroke-linejoin="round"/>
<path d="M30.4769 9.27783C32.6718 9.58141 34.4205 11.3661 34.7772 13.6147" stroke="#254078" stroke-width="1.5" stroke-miterlimit="10" stroke-linejoin="round"/>
<path d="M33.9744 11.4555C36.4551 9.47484 40.042 9.77856 42.1832 12.1344" stroke="#254078" stroke-width="1.5" stroke-miterlimit="10" stroke-linejoin="round"/>
<path d="M34.7601 5.63782C36.7409 6.2626 37.9542 8.15433 37.722 10.2422" stroke="#254078" stroke-width="1.5" stroke-miterlimit="10" stroke-linejoin="round"/>
<path d="M37.3118 7.72599C38.7217 6.88739 40.5598 6.79833 42.0766 7.42307C43.6112 8.13703 44.7175 9.49339 45.0386 11.0995" stroke="#254078" stroke-width="1.5" stroke-miterlimit="10" stroke-linejoin="round"/>
<path d="M43.9681 8.99359C44.5571 7.76231 45.6993 6.97721 46.9841 6.90596C48.269 6.8347 49.5895 7.40588 50.3568 8.45883" stroke="#254078" stroke-width="1.5" stroke-miterlimit="10" stroke-linejoin="round"/>
<path d="M43.1477 3.03308C44.1113 3.21163 44.8608 3.71137 45.3961 4.53231C45.8421 5.37109 45.9491 6.37045 45.6457 7.17346" stroke="#254078" stroke-width="1.5" stroke-miterlimit="10" stroke-linejoin="round"/>
</svg>
