<svg width="60" height="60" viewBox="0 0 60 60" fill="none" xmlns="http://www.w3.org/2000/svg">
<path d="M38.5901 50.4993C50.0865 45.6021 55.4362 32.3124 50.5389 20.8161C45.6417 9.31967 32.3521 3.96998 20.8557 8.86719C9.35933 13.7644 4.00965 27.054 8.90686 38.5504C13.8041 50.0468 27.0937 55.3965 38.5901 50.4993Z" stroke="#254078" stroke-width="2" stroke-miterlimit="10" stroke-linecap="round"/>
<path d="M20.4288 18.9233C20.4288 20.2096 19.3764 21.262 18.0902 21.262C16.804 21.262 15.7516 20.2096 15.7516 18.9233C15.7516 17.6371 16.804 16.5847 18.0902 16.5847C19.3764 16.5847 20.4288 17.6371 20.4288 18.9233Z" stroke="#254078" stroke-width="2" stroke-miterlimit="10" stroke-linecap="round"/>
<path d="M30.1341 13.2522C30.1341 14.5384 29.0817 15.5908 27.7955 15.5908C26.5092 15.5908 25.4568 14.5384 25.4568 13.2522C25.4568 11.966 26.5092 10.9136 27.7955 10.9136C29.0817 10.9136 30.1341 11.966 30.1341 13.2522Z" stroke="#254078" stroke-width="2" stroke-miterlimit="10" stroke-linecap="round"/>
<path d="M43.2304 32.2535C43.2304 33.5398 42.178 34.5922 40.8917 34.5922C39.6055 34.5922 38.5531 33.5398 38.5531 32.2535C38.5531 30.9673 39.6055 29.9149 40.8917 29.9149C42.178 29.8565 43.2304 30.9088 43.2304 32.2535Z" stroke="#254078" stroke-width="2" stroke-miterlimit="10" stroke-linecap="round"/>
<path d="M18.8503 36.1122C18.8503 37.3984 17.7979 38.4508 16.5117 38.4508C15.2254 38.4508 14.173 37.3984 14.173 36.1122C14.173 34.8259 15.2254 33.7736 16.5117 33.7736C17.7979 33.7736 18.8503 34.8259 18.8503 36.1122Z" stroke="#254078" stroke-width="2" stroke-miterlimit="10" stroke-linecap="round"/>
<path d="M32.0635 34.2998C32.0635 36.1122 30.5434 37.6323 28.731 37.6323C26.9185 37.6323 25.3984 36.1122 25.3984 34.2998C25.3984 32.4874 26.9185 30.9673 28.731 30.9673C30.6018 30.9673 32.0635 32.4289 32.0635 34.2998Z" stroke="#254078" stroke-width="2" stroke-miterlimit="10" stroke-linecap="round"/>
<path d="M35.8052 22.256C35.8052 24.0684 34.2851 25.5885 32.4727 25.5885C30.6603 25.5885 29.1402 24.0684 29.1402 22.256C29.1402 20.4436 30.6603 18.9235 32.4727 18.9235C34.3436 18.9235 35.8052 20.3851 35.8052 22.256Z" stroke="#254078" stroke-width="2" stroke-miterlimit="10" stroke-linecap="round"/>
<path d="M34.8698 45.116C34.8698 46.4022 33.8174 47.4546 32.5312 47.4546C31.245 47.4546 30.1926 46.4022 30.1926 45.116C30.1926 43.8297 31.245 42.7773 32.5312 42.7773C33.8174 42.7773 34.8698 43.8297 34.8698 45.116Z" stroke="#254078" stroke-width="2" stroke-miterlimit="10" stroke-linecap="round"/>
<path d="M45.569 19.8003C45.569 21.0865 44.5166 22.1389 43.2303 22.1389C41.9441 22.1389 40.8917 21.0865 40.8917 19.8003C40.8917 18.514 41.9441 17.4617 43.2303 17.4617C44.575 17.4617 45.569 18.514 45.569 19.8003Z" stroke="#254078" stroke-width="2" stroke-miterlimit="10" stroke-linecap="round"/>
</svg>
