<svg width="62" height="48" viewBox="0 0 62 48" fill="none" xmlns="http://www.w3.org/2000/svg">
<path d="M48.5105 39.8548C51.2678 37.5808 52.9578 34.2119 52.9578 30.5062C52.9578 23.5157 46.9984 17.8728 39.6159 17.8728C32.2334 17.8728 26.274 23.5157 26.274 30.5062C26.274 37.3282 32.0555 42.9711 39.1711 43.1395" stroke="#254078" stroke-width="1.8" stroke-miterlimit="10" stroke-linejoin="round"/>
<path d="M36.9475 39.4336C35.3464 39.0125 33.8344 38.1703 32.6781 37.0754C30.8991 35.3909 29.8318 33.1169 29.8318 30.506C29.8318 25.3685 34.1901 21.2416 39.6158 21.2416C42.2842 21.2416 44.7747 22.2522 46.5536 23.9367C48.3326 25.6211 49.3999 27.8951 49.3999 30.506C49.3999 33.0327 48.3326 35.2225 46.6426 36.9069" stroke="#254078" stroke-width="1.8" stroke-miterlimit="10" stroke-linejoin="round"/>
<path d="M43.9742 18.5466C34.9017 15.2619 30.5434 10.6297 24.8508 3.72342C23.6056 2.20742 21.8267 1.28098 19.7809 1.02831C17.7351 0.859865 15.7783 1.44942 14.1773 2.62853C13.8215 2.8812 13.5547 3.21809 13.2878 3.47076C11.5089 5.49209 10.7974 8.10299 11.331 10.7139C12.9321 18.4623 18.9804 29.6639 30.5434 39.7706" stroke="#254078" stroke-width="1.8" stroke-miterlimit="10" stroke-linecap="round" stroke-linejoin="round"/>
<path d="M17.0236 16.6094C18.3578 19.5572 20.1367 22.7576 22.6272 26.1265" stroke="#254078" stroke-width="1.8" stroke-miterlimit="10" stroke-linecap="round" stroke-linejoin="round"/>
<path d="M60.0734 38.8442C58.5614 37.4966 55.4482 38.002 53.2246 39.9391C51.0009 41.8762 50.4673 44.4871 51.9794 45.8346C53.4914 47.1822 56.6045 46.6768 58.8282 44.7397C61.0518 42.8026 61.6745 40.1917 60.0734 38.8442Z" stroke="#254078" stroke-width="1.8" stroke-miterlimit="10" stroke-linecap="round" stroke-linejoin="round"/>
<path d="M37.8369 37.1597C39.349 35.8122 42.4621 36.3175 44.6858 38.2546C46.9094 40.1917 47.4431 42.8026 45.931 44.1502C44.4189 45.4977 41.3058 44.9924 39.0822 43.0553C36.8585 41.1182 36.3248 38.5073 37.8369 37.1597Z" stroke="#254078" stroke-width="1.8" stroke-miterlimit="10" stroke-linecap="round" stroke-linejoin="round"/>
<path d="M41.4837 33.3697C40.5053 32.4432 40.8611 30.5903 42.2843 29.2428C43.7074 27.8952 45.6642 27.5583 46.6426 28.4848C47.621 29.4112 47.2652 31.2641 45.8421 32.6117C44.419 33.9592 42.4622 34.2961 41.4837 33.3697Z" stroke="#254078" stroke-width="1.8" stroke-miterlimit="10" stroke-linecap="round" stroke-linejoin="round"/>
<path d="M36.5916 32.9486C38.0148 32.6117 38.9932 30.843 38.7264 28.9901C38.4595 27.1373 37.0364 25.9581 35.6132 26.295C34.1901 26.6319 33.2117 28.4006 33.4785 30.2535C33.7454 32.1064 35.0796 33.2855 36.5916 32.9486Z" stroke="#254078" stroke-width="1.8" stroke-miterlimit="10" stroke-linecap="round" stroke-linejoin="round"/>
<path d="M10.9351 32.5752L12.1393 31.1391C14.8489 27.9798 12.478 23.2407 8.18785 23.2407C3.93528 23.2766 1.60201 28.0516 4.34925 31.175L15.3758 43.7766L18.4994 41.1199L7.02121 28.1952C5.81695 26.8309 5.59115 25.1794 6.04275 23.7433" stroke="#254078" stroke-width="2" stroke-miterlimit="10" stroke-linecap="round"/>
<path d="M1.26332 43.8126L8.26312 35.6628" stroke="#254078" stroke-width="2" stroke-miterlimit="10" stroke-linecap="round"/>
</svg>
