<svg width="48" height="46" viewBox="0 0 48 46" fill="none" xmlns="http://www.w3.org/2000/svg">
<path d="M29.933 26.3431C24.6457 26.7867 18.3077 28.22 13.0882 24.1249C10.953 22.4187 9.63116 20.2687 9.39391 17.9823C9.15666 15.9348 9.83451 13.819 11.1902 12.2833C12.8171 10.4747 15.3929 9.48502 17.6638 9.8604C19.6973 10.2017 21.5953 11.8397 22.4426 13.819C22.4426 13.819 24.8829 19.8934 17.5282 22.4187" stroke="#254078" stroke-width="2" stroke-miterlimit="10" stroke-linecap="round"/>
<path d="M18.8501 17.6751C19.2568 16.9585 19.3924 16.1053 19.0535 15.3546C18.579 14.2626 17.3588 13.5118 16.1726 13.5459C14.0373 13.58 12.6477 16.0371 13.0883 18.0164C13.2917 18.9378 13.834 19.8592 14.4779 20.5417C15.4947 21.6337 16.8165 22.2821 18.2061 22.7257C21.5954 23.8178 25.5948 22.9987 29.628 22.6575" stroke="#254078" stroke-width="2" stroke-miterlimit="10" stroke-linecap="round"/>
<path d="M21.5614 26.9232C21.2564 29.3803 21.5275 31.0866 21.7648 31.9738C22.0698 33.0659 22.646 33.9531 23.3917 34.5674C26.1031 36.8538 29.0518 34.6698 29.0518 34.6698" stroke="#254078" stroke-width="2" stroke-miterlimit="10" stroke-linecap="round"/>
<path d="M32.6444 36.4103C31.5937 37.5365 26.3064 41.5633 20.9514 37.5023C19.5618 36.4444 18.7483 34.8405 18.24 32.9977C17.7316 31.2573 17.7316 28.3908 18.1722 26.548" stroke="#254078" stroke-width="2" stroke-miterlimit="10" stroke-linecap="round"/>
<path d="M14.6135 25.1487C14.6135 25.1828 13.2578 27.401 13.3595 29.9604C13.4273 31.4278 14.0712 32.7928 15.2236 33.5436C16.037 34.0555 16.8843 34.2261 17.8672 34.0214" stroke="#254078" stroke-width="2" stroke-miterlimit="10" stroke-linecap="round"/>
<path d="M20.4769 37.0585C18.1383 38.2529 15.1896 37.8093 13.2577 36.6149C11.0208 35.2499 9.86846 32.6904 9.73289 29.9263C9.49564 25.7971 11.8342 22.8964 11.8342 22.8964" stroke="#254078" stroke-width="2" stroke-miterlimit="10" stroke-linecap="round"/>
<path d="M18.7484 6.61847C21.2565 2.11387 27.0182 1.39723 27.0182 1.39723C30.3397 0.646462 36.0337 0.748839 39.1858 3.58128C41.8972 5.97008 41.965 9.24615 41.965 9.79216C41.9311 12.2492 40.6431 14.6039 38.3723 15.6618C37.2539 16.1737 36.0337 16.276 34.8475 16.5149C33.7629 16.7197 32.7122 17.0609 31.8649 17.7435C30.3058 19.0061 29.5602 21.2243 29.628 22.7258" stroke="#254078" stroke-width="2" stroke-miterlimit="10" stroke-linecap="round"/>
<path d="M25.9675 23.0328C25.798 20.644 26.8487 18.2211 28.2722 16.2759C29.4246 14.7061 31.1192 13.5117 33.0172 13.1022C33.9662 12.8975 34.983 12.8975 35.8981 12.6245C36.6098 12.4197 37.2877 12.0443 37.7622 11.4301C38.5417 10.3722 38.44 8.83651 37.83 7.67624C35.9659 4.09304 29.7635 4.46842 27.696 5.01444C27.086 5.18506 25.9675 5.4922 24.8151 6.07233" stroke="#254078" stroke-width="2" stroke-miterlimit="10" stroke-linecap="round"/>
<path d="M18.7483 6.61846C18.7483 6.61846 14.3762 5.15105 10.309 7.6081C6.78416 9.7239 5.12341 12.9658 5.05563 16.6855C5.02173 18.972 5.53013 22.4528 8.4788 25.1146" stroke="#254078" stroke-width="2" stroke-miterlimit="10" stroke-linecap="round"/>
<path d="M7.56372 28.5953C2.51369 25.1486 1.80194 19.279 1.83583 16.6513C1.93751 11.5666 4.07276 6.95963 8.47882 4.67321C10.3768 3.68357 12.0376 3.13755 14.1389 3.03518C16.7487 2.89867 19.8668 3.34231 21.0192 3.95657" stroke="#254078" stroke-width="2" stroke-miterlimit="10" stroke-linecap="round"/>
<path d="M26.3064 14.8768C26.3064 14.8768 25.7642 10.4404 22.1715 8.18811" stroke="#254078" stroke-width="2" stroke-miterlimit="10" stroke-linecap="round"/>
<path d="M24.8152 6.10669C29.7297 9.34863 29.5263 14.877 29.5263 14.877" stroke="#254078" stroke-width="2" stroke-miterlimit="10" stroke-linecap="round"/>
<path d="M38.9485 32.9295L40.0331 31.5644C42.4734 28.5614 40.3381 24.0568 36.4743 24.0568C32.6106 24.0909 30.5092 28.5955 32.9834 31.5985L42.914 43.5767L45.7271 41.0514L35.3898 28.7661C34.3052 27.4693 34.1018 25.8996 34.5086 24.5345" stroke="#254078" stroke-width="2" stroke-miterlimit="10" stroke-linecap="round"/>
<path d="M30.2041 43.6448L36.5421 35.8641" stroke="#254078" stroke-width="2" stroke-miterlimit="10" stroke-linecap="round"/>
<path d="M41.8632 10.8843C42.4055 11.5327 43.1851 12.6247 43.2867 12.7612C44.8119 15.15 44.9475 18.2213 43.7273 20.8149C43.1851 21.9751 42.3716 22.9989 41.4226 23.7838" stroke="#254078" stroke-width="2" stroke-miterlimit="10" stroke-linecap="round"/>
<path d="M29.628 22.6575L36.7455 21.8385C40.1009 21.4631 42.0328 17.641 40.2025 14.7745C40.1348 14.6721 40.067 14.5697 39.9992 14.5015" stroke="#254078" stroke-width="2" stroke-miterlimit="10" stroke-linecap="round"/>
</svg>
