<svg width="49" height="45" viewBox="0 0 49 45" fill="none" xmlns="http://www.w3.org/2000/svg">
<path d="M25.9058 24.4473C19.2533 28.8108 12.2789 32.1013 7.62927 34.0684C5.01834 35.1772 2.12128 33.2816 2.04975 30.456L1.65632 10.2481C1.54902 4.66861 6.48476 0.30514 12.0285 1.092C21.6139 2.45111 34.4182 4.02482 43.3239 3.48833C46.5787 3.3095 48.6531 6.88612 46.9006 9.60435C43.3955 14.9693 36.9933 21.6933 25.9058 24.4473Z" stroke="#254078" stroke-width="2" stroke-miterlimit="10" stroke-linejoin="round"/>
<path d="M25.9058 24.4473C25.9058 24.4473 29.5897 20.0839 26.943 9.2467" stroke="#254078" stroke-width="2" stroke-miterlimit="10" stroke-linecap="round" stroke-linejoin="round"/>
<path d="M9.66794 1.05627L13.638 4.95479L11.0628 7.95915L14.6394 11.5L11.9212 14.3971L15.1044 17.6518" stroke="#254078" stroke-width="2" stroke-miterlimit="10" stroke-linecap="round" stroke-linejoin="round"/>
<path d="M16.0701 1.62842L19.1817 4.70431L16.8569 7.38677L19.3248 9.71158" stroke="#254078" stroke-width="2" stroke-miterlimit="10" stroke-linecap="round" stroke-linejoin="round"/>
<path d="M40.3196 31.9224L41.4641 30.4917C44.0393 27.3443 41.786 22.6232 37.7087 22.6232C33.6671 22.6589 31.4496 27.4158 34.0605 30.5275L44.54 43.0814L47.5086 40.4347L36.5999 27.5589C35.4554 26.1998 35.2408 24.5545 35.67 23.1239" stroke="#254078" stroke-width="2" stroke-miterlimit="10" stroke-linecap="round"/>
<path d="M31.1277 43.1172L37.7802 34.9983" stroke="#254078" stroke-width="2" stroke-miterlimit="10" stroke-linecap="round"/>
</svg>
