<svg width="176" height="108" viewBox="0 0 176 108" fill="none" xmlns="http://www.w3.org/2000/svg">
<path d="M130.585 105.427C130.423 105.138 126.728 98.3223 115.929 95.2832C112.537 94.3285 108.776 93.8172 104.743 93.8374L102.421 93.8524L103.286 95.9807C103.433 96.326 106.639 103.794 116.985 106.706C120.66 107.74 124.84 108.066 129.354 107.634L131.668 107.434L130.585 105.427Z" fill="white" fill-opacity="0.25"/>
<path d="M115.177 93.1868C117.306 91.4757 119.487 88.9282 121.388 85.2076L122.402 83.1219L120.071 82.952C119.716 82.9129 111.721 82.4867 104.654 91.9883C108.428 92.0171 111.979 92.4085 115.177 93.1868Z" fill="white" fill-opacity="0.25"/>
<path d="M146.98 95.0852C146.786 94.9088 141.658 90.3651 131.765 91.0462C128.653 91.2647 125.398 91.9901 122.057 93.2385L120.157 93.9196L121.511 95.3951C121.69 95.6277 126.668 100.92 136.077 100.224C139.447 99.9565 143.007 99.0131 146.604 97.2895L148.438 96.4075L146.98 95.0852Z" fill="white" fill-opacity="0.25"/>
<path d="M130.54 89.5462C131.796 87.4678 132.871 84.7307 133.289 81.0788L133.545 79.0839L131.564 79.6206C131.234 79.71 124.509 81.7084 121.501 91.7445C124.568 90.6015 127.638 89.8846 130.54 89.5462Z" fill="white" fill-opacity="0.25"/>
<path d="M160.281 83.8119C160.071 83.6919 154.703 81.0867 146.555 84.0221C143.978 84.9385 141.445 86.3533 138.872 88.122L137.418 89.1717L138.93 90.0839C139.141 90.2038 144.561 93.4923 152.306 90.6868C155.084 89.7055 157.81 88.0408 160.468 85.7492L161.826 84.6113L160.281 83.8119Z" fill="white" fill-opacity="0.25"/>
<path d="M145.187 83.0292C145.758 81.0011 145.987 78.4515 145.48 75.2688L145.189 73.4846L143.652 74.3898C143.435 74.5111 138.225 77.8477 138.093 86.9906C140.407 85.2709 142.796 83.937 145.187 83.0292Z" fill="white" fill-opacity="0.25"/>
<path d="M167.859 69.8943C167.617 69.887 162.436 69.2191 156.515 73.9972C154.635 75.4743 152.942 77.3691 151.34 79.5932L150.435 80.8583L151.977 81.2316C152.203 81.2953 157.613 82.4529 163.285 77.9088C165.326 76.2945 167.097 74.1181 168.641 71.4519L169.449 70.0985L167.859 69.8943Z" fill="white" fill-opacity="0.25"/>
<path d="M155.045 73.5835C154.955 71.7344 154.364 69.5008 153.053 67.004L152.336 65.6472L151.334 66.8242C151.158 67.0177 147.775 71.2333 150.32 78.8806C151.746 76.85 153.35 75.0521 155.045 73.5835Z" fill="white" fill-opacity="0.25"/>
<path d="M171.096 57.3085C170.911 57.3171 166.292 57.9019 162.278 63.2773C161.004 64.9859 159.892 66.9834 159.073 69.2453L158.579 70.5655L159.99 70.5372C160.176 70.5286 165.095 70.3931 168.99 65.2271C170.368 63.3655 171.429 61.1109 172.159 58.5195L172.539 57.1675L171.096 57.3085Z" fill="white" fill-opacity="0.25"/>
<path d="M160.939 63.2653C160.415 61.6587 159.495 59.9407 157.768 58.0563L156.843 57.0057L156.252 58.2378C156.132 58.4472 154.17 62.8193 158.03 68.8303C158.786 66.7937 159.809 64.893 160.939 63.2653Z" fill="white" fill-opacity="0.25"/>
<path d="M173.746 43.3415C173.544 43.4064 169.276 44.6978 166.376 50.4478C165.442 52.2518 164.742 54.3043 164.277 56.6054L164.026 57.9329L165.315 57.6878C165.516 57.6229 170.101 56.7246 172.921 51.2563C173.904 49.2833 174.554 46.9736 174.856 44.3835L174.978 43.0805L173.746 43.3415Z" fill="white" fill-opacity="0.25"/>
<path d="M165.119 50.5802C164.418 49.1671 163.193 47.6672 161.298 46.1612L160.254 45.32L159.889 46.6157C159.826 46.8411 158.646 51.251 163.26 56.319C163.661 54.2432 164.272 52.2875 165.119 50.5802Z" fill="white" fill-opacity="0.25"/>
<path d="M174.511 29.9992C174.366 30.08 170.27 31.8453 167.976 37.8266C167.267 39.6943 166.778 41.8668 166.628 44.1348L166.505 45.4378L167.77 45.0641C167.971 44.9992 172.416 43.5143 174.63 37.8146C175.386 35.778 175.81 33.4046 175.757 30.7754L175.751 29.4969L174.511 29.9992Z" fill="white" fill-opacity="0.25"/>
<path d="M166.727 38.1439C165.826 36.7958 164.496 35.4489 162.409 34.1927L161.261 33.5047L161.066 34.8481C161.002 35.0734 160.403 39.5862 165.531 44.13C165.706 41.9906 166.148 39.987 166.727 38.1439Z" fill="white" fill-opacity="0.25"/>
<path d="M170.621 18.0218C170.476 18.1027 167.359 20.5083 166.741 26.171C166.548 27.9406 166.622 29.846 166.906 31.8715L167.073 33.0128L168.103 32.3906C168.247 32.3097 171.745 30.0718 172.396 24.7226C172.637 22.7841 172.425 20.7182 171.833 18.4846L171.537 17.3678L170.621 18.0218Z" fill="white" fill-opacity="0.25"/>
<path d="M165.744 26.6805C164.731 25.7267 163.259 24.8869 161.255 24.2014L160.14 23.8268L160.235 25.0086C160.244 25.1935 160.699 29.2126 166.02 31.9867C165.688 30.1303 165.582 28.3375 165.744 26.6805Z" fill="white" fill-opacity="0.25"/>
<path d="M165.91 7.88043C165.821 7.97719 163.414 10.4611 163.64 15.5101C163.68 17.1021 164.003 18.7736 164.568 20.4525L164.895 21.4566L165.699 20.7707C165.787 20.6739 168.59 18.3015 168.413 13.5096C168.348 11.789 167.888 9.95707 167.129 8.1019L166.729 7.1382L165.91 7.88043Z" fill="white" fill-opacity="0.25"/>
<path d="M162.812 16.0674C161.777 15.4112 160.411 14.8444 158.554 14.5042L157.505 14.3305L157.776 15.3187C157.801 15.4473 158.713 18.9263 163.778 20.6559C163.239 19.1056 162.941 17.5627 162.812 16.0674Z" fill="white" fill-opacity="0.25"/>
<path d="M159.342 0.864378C159.311 0.977047 157.855 3.54649 159.19 7.6916C159.624 8.9688 160.227 10.2937 161.088 11.5696L161.552 12.308L162.056 11.5989C162.145 11.5021 163.858 8.88367 162.645 4.95531C162.186 3.54952 161.413 2.17685 160.342 0.780956L159.806 0.0830086L159.342 0.864378Z" fill="white" fill-opacity="0.25"/>
<path d="M158.645 8.32845C157.643 7.98571 156.352 7.80466 154.764 8.02655L153.877 8.14179L154.325 8.9365C154.406 9.08099 155.927 11.6978 160.478 12.0057C159.673 10.7457 159.094 9.54932 158.645 8.32845Z" fill="white" fill-opacity="0.25"/>
<path d="M45.4148 105.427C45.5775 105.138 49.2726 98.3223 60.071 95.2832C63.4632 94.3285 67.2242 93.8172 71.2568 93.8374L73.5796 93.8524L72.7142 95.9807C72.5674 96.326 69.361 103.794 59.0149 106.706C55.3401 107.74 51.1606 108.066 46.646 107.634L44.3322 107.434L45.4148 105.427Z" fill="white" fill-opacity="0.25"/>
<path d="M60.8233 93.1868C58.6944 91.4757 56.5131 88.9282 54.6117 85.2076L53.5976 83.1219L55.9294 82.952C56.2845 82.9129 64.2794 82.4867 71.3465 91.9883C67.5718 92.0171 64.0211 92.4085 60.8233 93.1868Z" fill="white" fill-opacity="0.25"/>
<path d="M29.02 95.0852C29.2145 94.9088 34.3422 90.3651 44.2351 91.0462C47.3473 91.2647 50.6022 91.9901 53.9433 93.2385L55.8434 93.9196L54.4892 95.3951C54.3106 95.6277 49.3325 100.92 39.9235 100.224C36.5535 99.9565 32.9932 99.0131 29.3964 97.2895L27.5618 96.4075L29.02 95.0852Z" fill="white" fill-opacity="0.25"/>
<path d="M45.4604 89.5462C44.2043 87.4678 43.1289 84.7307 42.7112 81.0788L42.4549 79.0839L44.4363 79.6206C44.7666 79.71 51.4914 81.7084 54.499 91.7445C51.4317 90.6015 48.3623 89.8846 45.4604 89.5462Z" fill="white" fill-opacity="0.25"/>
<path d="M15.7189 83.8119C15.9292 83.6919 21.2975 81.0867 29.4453 84.0221C32.0217 84.9385 34.5554 86.3533 37.1277 88.122L38.5824 89.1717L37.0697 90.0839C36.8594 90.2038 31.4394 93.4923 23.6942 90.6868C20.9165 89.7055 18.1904 88.0408 15.532 85.7492L14.1745 84.6113L15.7189 83.8119Z" fill="white" fill-opacity="0.25"/>
<path d="M30.8132 83.0292C30.2425 81.0011 30.013 78.4515 30.5206 75.2688L30.8116 73.4846L32.3477 74.3898C32.5649 74.5111 37.7749 77.8477 37.9075 86.9906C35.5931 85.2709 33.2042 83.937 30.8132 83.0292Z" fill="white" fill-opacity="0.25"/>
<path d="M8.1411 69.8943C8.3831 69.887 13.5644 69.2191 19.4852 73.9972C21.3653 75.4743 23.0578 77.369 24.66 79.5932L25.5652 80.8583L24.0228 81.2316C23.7967 81.2953 18.3872 82.4529 12.7152 77.9088C10.6745 76.2945 8.90275 74.1181 7.35919 71.4519L6.55121 70.0985L8.1411 69.8943Z" fill="white" fill-opacity="0.25"/>
<path d="M20.9551 73.5835C21.0449 71.7344 21.6365 69.5008 22.9473 67.004L23.6637 65.6472L24.6661 66.8242C24.8426 67.0177 28.2256 71.2333 25.6797 78.8806C24.254 76.85 22.6498 75.0521 20.9551 73.5835Z" fill="white" fill-opacity="0.25"/>
<path d="M4.90405 57.3085C5.08951 57.3171 9.70814 57.9019 13.7226 63.2773C14.9966 64.9859 16.1079 66.9834 16.9276 69.2453L17.4211 70.5655L16.0098 70.5372C15.8244 70.5286 10.9051 70.3931 7.01063 65.2271C5.6325 63.3655 4.57085 61.1109 3.84153 58.5195L3.46102 57.1675L4.90405 57.3085Z" fill="white" fill-opacity="0.25"/>
<path d="M15.0615 63.2653C15.5856 61.6587 16.5054 59.9407 18.2326 58.0563L19.1572 57.0057L19.748 58.2378C19.8679 58.4472 21.8306 62.8193 17.97 68.8303C17.2138 66.7937 16.1908 64.893 15.0615 63.2653Z" fill="white" fill-opacity="0.25"/>
<path d="M2.25449 43.3415C2.45581 43.4064 6.72416 44.6978 9.62373 50.4478C10.5585 52.2518 11.2582 54.3043 11.7228 56.6054L11.9744 57.9329L10.6851 57.6878C10.4838 57.6229 5.89898 56.7246 3.07869 51.2563C2.09631 49.2833 1.44626 46.9736 1.14441 44.3835L1.02175 43.0805L2.25449 43.3415Z" fill="white" fill-opacity="0.25"/>
<path d="M10.8813 50.5802C11.5818 49.1671 12.8071 47.6672 14.7018 46.1612L15.7463 45.32L16.111 46.6157C16.1744 46.8411 17.3545 51.2511 12.7405 56.319C12.3393 54.2433 11.7278 52.2875 10.8813 50.5802Z" fill="white" fill-opacity="0.25"/>
<path d="M1.48913 29.9992C1.63391 30.08 5.73057 31.8453 8.02409 37.8266C8.73276 39.6943 9.22217 41.8668 9.37236 44.1348L9.49502 45.4378L8.23058 45.0641C8.02926 44.9992 3.58441 43.5143 1.37016 37.8146C0.613929 35.778 0.190031 33.4046 0.243247 30.7754L0.249514 29.4969L1.48913 29.9992Z" fill="white" fill-opacity="0.25"/>
<path d="M9.27266 38.1439C10.1745 36.7958 11.5039 35.4489 13.5909 34.1927L14.7396 33.5047L14.9346 34.8481C14.998 35.0734 15.597 39.5862 10.4693 44.13C10.2942 41.9906 9.8524 39.987 9.27266 38.1439Z" fill="white" fill-opacity="0.25"/>
<path d="M5.37892 18.0218C5.5237 18.1027 8.6413 20.5083 9.25878 26.171C9.45174 27.9406 9.37787 29.846 9.09372 31.8715L8.92681 33.0128L7.89748 32.3906C7.7527 32.3097 4.2552 30.0718 3.60393 24.7226C3.3634 22.7841 3.57517 20.7182 4.16683 18.4846L4.46266 17.3678L5.37892 18.0218Z" fill="white" fill-opacity="0.25"/>
<path d="M10.2564 26.6805C11.2692 25.7267 12.7413 24.8869 14.7449 24.2014L15.8597 23.8268L15.7652 25.0086C15.7563 25.1935 15.301 29.2126 9.98035 31.9867C10.3121 30.1303 10.4176 28.3375 10.2564 26.6805Z" fill="white" fill-opacity="0.25"/>
<path d="M10.0905 7.88043C10.1787 7.97719 12.5862 10.4611 12.3598 15.5101C12.3198 17.1021 11.997 18.7736 11.4323 20.4525L11.1047 21.4566L10.3015 20.7707C10.2133 20.6739 7.41007 18.3015 7.58681 13.5096C7.6517 11.789 8.11235 9.95707 8.87153 8.1019L9.27146 7.1382L10.0905 7.88043Z" fill="white" fill-opacity="0.25"/>
<path d="M13.1878 16.0674C14.2234 15.4112 15.5893 14.8444 17.446 14.5042L18.4953 14.3305L18.2243 15.3187C18.1995 15.4473 17.2872 18.9263 12.2217 20.6559C12.7616 19.1056 13.0595 17.5627 13.1878 16.0674Z" fill="white" fill-opacity="0.25"/>
<path d="M16.6579 0.864378C16.6896 0.977046 18.1449 3.54649 16.8099 7.69159C16.3762 8.9688 15.7729 10.2937 14.9117 11.5696L14.4483 12.308L13.9437 11.5989C13.8554 11.5021 12.1422 8.88367 13.3552 4.9553C13.8138 3.54952 14.5867 2.17685 15.6582 0.780955L16.1939 0.0830078L16.6579 0.864378Z" fill="white" fill-opacity="0.25"/>
<path d="M17.3552 8.32845C18.357 7.98571 19.6484 7.80466 21.2362 8.02655L22.1228 8.14179L21.6753 8.9365C21.594 9.08099 20.0729 11.6978 15.5225 12.0057C16.3271 10.7457 16.9057 9.54932 17.3552 8.32845Z" fill="white" fill-opacity="0.25"/>
</svg>
