<svg width="50" height="53" viewBox="0 0 50 53" fill="none" xmlns="http://www.w3.org/2000/svg">
<path d="M28.6281 22.5522C28.3459 22.5522 28.0071 22.4954 27.7813 22.325L24.4507 20.564L21.12 22.325C20.3297 22.7226 19.3701 22.5522 18.8055 21.8705C18.4668 21.4729 18.2975 20.9048 18.4104 20.3368L19.0313 16.6444L16.3781 14.0313C15.8701 13.5201 15.7007 12.7816 15.9265 12.0999C16.1523 11.4182 16.7168 10.907 17.4507 10.7934L21.1765 10.2253L22.8136 6.87375C23.1523 6.24888 23.7733 5.79443 24.5071 5.79443C25.241 5.79443 25.862 6.19208 26.2007 6.87375L27.8378 10.2253L31.5636 10.7934C32.2975 10.907 32.862 11.4182 33.0878 12.0999C33.3136 12.7816 33.1442 13.5201 32.6362 14.0313L29.983 16.6444L30.6039 20.3368C30.7168 20.9048 30.5475 21.4729 30.2088 21.8705C29.7007 22.325 29.1926 22.5522 28.6281 22.5522ZM18.4668 12.952L21.0071 15.4515C21.2894 15.7355 21.4023 16.0763 21.3459 16.474L20.7249 19.9959L23.8862 18.3486C24.2249 18.1781 24.62 18.1781 24.9588 18.3486L28.1201 19.9959L27.4991 16.474C27.4426 16.1331 27.5555 15.7355 27.8378 15.4515L30.3781 12.952L26.8781 12.4407C26.483 12.3839 26.2007 12.1567 26.0313 11.8159L24.4507 8.57793L22.8701 11.8159C22.7007 12.1567 22.362 12.3839 22.0233 12.4407L18.4668 12.952Z" fill="white"/>
<path d="M30.7733 29.4255C33.8781 27.7781 36.0233 25.0514 37.6039 21.9839C47.3136 21.4159 48.8378 9.94105 49.0636 6.36227C49.12 5.62379 48.8378 4.88532 48.3297 4.31726C47.8217 3.806 47.1442 3.46517 46.3539 3.46517H41.5555V2.72669C41.5555 1.19293 40.3136 0 38.8458 0H10.2249C8.70067 0 7.51519 1.24973 7.51519 2.72669V3.52197H2.7168C1.98293 3.52197 1.24906 3.806 0.740994 4.37406C0.23293 4.94212 -0.0493284 5.62379 0.00712319 6.41908C0.23293 9.99786 1.70067 21.4727 11.4668 22.0407C13.0474 25.1083 15.2491 27.8349 18.2974 29.4255C18.2974 29.4255 18.3539 29.4255 18.3539 29.4823C18.5233 29.5959 19.7652 30.448 20.4991 33.1747C20.9507 34.9925 20.9507 37.0375 20.4991 39.0257L20.4426 39.1961H19.991C17.2249 39.1961 14.9668 41.4684 14.9668 44.2519V45.0472C12.2007 45.4448 10.0555 47.8307 10.0555 50.7846V50.8414C10.0555 52.0343 11.0152 53 12.2007 53H36.8136C37.9991 53 38.9587 52.0343 38.9587 50.8414V50.7846C38.9587 47.8875 36.8136 45.4448 34.0475 45.0472V44.2519C34.0475 41.4684 31.7894 39.1961 29.0233 39.1961H28.5716L28.5152 38.9689C28.0636 36.9239 28.0636 34.8789 28.5152 33.0611C29.3055 30.5048 30.5475 29.5959 30.7733 29.4255ZM46.4104 5.79421C46.5797 5.79421 46.6926 5.85102 46.6926 5.90782C46.7491 5.96463 46.8055 6.07824 46.8055 6.24866C46.5797 9.99786 45.2813 18.2915 38.7329 19.5981C41.2733 13.2926 41.612 6.6463 41.612 6.19185V5.85102H46.4104V5.79421ZM2.32164 6.24866C2.32164 6.07824 2.37809 5.96463 2.43454 5.90782C2.49099 5.85102 2.6039 5.79421 2.7168 5.79421H7.51519V6.19185C7.51519 6.6463 7.8539 13.2926 10.3942 19.5413C3.84583 18.2915 2.54745 9.99786 2.32164 6.24866ZM26.4265 32.5498C25.862 34.7085 25.862 37.1511 26.4265 39.537L26.6523 40.6163C26.7652 41.2412 27.3862 41.582 28.0071 41.4684C28.0636 41.4684 28.0636 41.4684 28.12 41.4116C28.2329 41.4684 28.4023 41.5252 28.5716 41.5252H29.1362C30.6604 41.5252 31.9023 42.7749 31.9023 44.3087V45.0472H31.3378C30.7168 45.0472 30.2087 45.5584 30.2087 46.1833C30.2087 46.8081 30.7168 47.3194 31.3378 47.3194H33.3136C35.2329 47.3194 36.7571 48.8532 36.8136 50.7846H12.3136C12.3136 48.8532 13.8942 47.3194 15.8136 47.3194H23.8862C24.5071 47.3194 25.0152 46.8081 25.0152 46.1833C25.0152 45.5584 24.5071 45.0472 23.8862 45.0472H17.2813V44.3087C17.2813 42.7749 18.5233 41.5252 20.0475 41.5252H21.4023H22.6442C23.2652 41.5252 23.7733 41.0139 23.7733 40.3891C23.7733 39.821 23.3216 39.3098 22.7571 39.2529C23.2087 36.9807 23.2087 34.6517 22.7007 32.5498C21.8539 29.2551 20.2168 27.9486 19.6523 27.5509C19.5958 27.4941 19.4829 27.4373 19.4265 27.3805C16.6604 25.9035 14.6845 23.3473 13.2733 20.3934C10.1684 14.0311 9.77325 6.19185 9.77325 6.13505V2.72669C9.77325 2.49946 9.99906 2.27224 10.2249 2.27224H38.9023C39.1281 2.27224 39.3539 2.49946 39.3539 2.72669V4.65809V6.07824C39.3539 6.24866 38.5636 22.7224 29.7007 27.3805C29.6442 27.4373 29.5313 27.4941 29.4749 27.5509C28.9104 27.9486 27.2733 29.3119 26.4265 32.5498Z" fill="white"/>
</svg>
