<svg width="69" height="36" viewBox="0 0 69 36" fill="none" xmlns="http://www.w3.org/2000/svg">
<g clip-path="url(#clip0)">
<path d="M42.2818 36C41.8568 36 41.485 35.8921 41.1132 35.7301L34.5266 32.1679L27.8868 35.7301C26.8776 36.2699 25.6028 36 24.8591 35.1364C24.3811 34.5967 24.2217 33.8411 24.328 33.0855L25.6028 25.5292L20.1848 20.2399C19.4942 19.5922 19.2818 18.5667 19.5474 17.7032C19.8129 16.7856 20.6097 16.1379 21.5127 16.03L28.9492 14.9505L32.2956 8.09596C32.7206 7.23239 33.5705 6.69266 34.4735 6.69266C35.4296 6.69266 36.2795 7.23239 36.7044 8.09596L40.0508 14.9505L47.4873 16.03C48.4434 16.1919 49.1871 16.8396 49.4527 17.7032C49.7183 18.6207 49.5058 19.5922 48.8153 20.2399L43.4504 25.5832L44.7252 33.1394C44.8314 33.8411 44.6721 34.5967 44.194 35.1904C43.7159 35.6762 43.0254 36 42.2818 36ZM34.5266 29.8471C34.6859 29.8471 34.8453 29.9011 35.0046 29.955L42.1755 33.7871C42.3349 33.8411 42.4942 33.8411 42.6005 33.6792C42.6536 33.6252 42.7067 33.5172 42.6536 33.4093L41.2725 25.3133C41.2194 24.9895 41.3256 24.6117 41.5912 24.3418L47.3811 18.6207C47.4873 18.5127 47.4873 18.3508 47.4873 18.2969C47.4873 18.2429 47.3811 18.081 47.2217 18.081L39.2009 16.8936C38.8291 16.8396 38.5635 16.6237 38.4042 16.2999L34.8453 8.95952C34.7922 8.79761 34.6328 8.74363 34.5266 8.74363C34.4735 8.74363 34.3141 8.74363 34.2079 8.95952L30.649 16.2999C30.4896 16.6237 30.1709 16.8396 29.8522 16.8936L21.8314 18.081C21.6721 18.081 21.5658 18.2429 21.5658 18.2969C21.5658 18.3508 21.5127 18.5127 21.6721 18.6207L27.4619 24.3418C27.7275 24.6117 27.8337 24.9355 27.7806 25.3133L26.3995 33.4093C26.3995 33.5172 26.3995 33.6252 26.4527 33.6792C26.5589 33.7871 26.7183 33.8411 26.8776 33.7871L33.9954 30.009C34.1547 29.9011 34.3141 29.8471 34.5266 29.8471Z" fill="white"/>
<path d="M61.7229 29.4153C61.351 29.4153 60.9261 29.3073 60.5543 29.1454L53.9146 25.5832L47.2748 29.0915C46.7437 29.3613 46.1062 29.1454 45.8407 28.6597C45.5751 28.1199 45.7875 27.4723 46.2656 27.2024L53.4365 23.3703C53.7552 23.2084 54.127 23.2084 54.4457 23.3703L61.6166 27.2024C61.776 27.3103 61.8822 27.2024 61.9885 27.2024C62.0416 27.1484 62.1478 27.0405 62.0947 26.8786L60.7136 18.7826C60.6605 18.4588 60.7668 18.081 61.0323 17.8111L66.8222 12.09C66.9284 11.982 66.9284 11.8201 66.9284 11.7661C66.9284 11.7121 66.8222 11.5502 66.6628 11.5502L58.642 10.3628C58.2702 10.3088 58.0046 10.093 57.8453 9.76912L54.2864 2.42879C54.127 2.15892 54.0208 2.15892 53.9146 2.15892C53.8614 2.15892 53.7021 2.15892 53.5959 2.32084L50.037 9.71514C49.8776 10.039 49.5589 10.2549 49.2402 10.3088L41.2194 11.4963C40.6351 11.6042 40.1039 11.1724 39.9977 10.5787C39.8915 9.98501 40.3164 9.44528 40.9007 9.33733L48.3372 8.25787L51.6836 1.4033C52.1617 0.53973 52.9584 0 53.9146 0C54.8707 0 55.7206 0.53973 56.0924 1.4033L59.4388 8.25787L66.8753 9.33733C67.8314 9.49925 68.5751 10.1469 68.8407 11.0105C69.1062 11.928 68.8938 12.8996 68.2032 13.5472L62.8383 18.8906L64.1132 26.4468C64.2725 27.3643 63.9007 28.3358 63.1571 28.8756C62.7321 29.2534 62.254 29.4153 61.7229 29.4153Z" fill="white"/>
<path d="M7.2766 29.4153C6.74543 29.4153 6.26737 29.2534 5.84242 28.9295C5.09877 28.3898 4.72695 27.4183 4.8863 26.5007L6.16113 18.9445L0.743116 13.6012C0.0525852 12.9535 -0.159886 11.928 0.105703 11.0645C0.371292 10.1469 1.16806 9.49925 2.07106 9.3913L9.50755 8.31184L12.854 1.45727C13.2789 0.53973 14.1288 0 15.0849 0C16.041 0 16.8909 0.53973 17.2627 1.4033L20.6092 8.25787L28.0457 9.33733C28.63 9.44528 29.0018 9.98501 28.9487 10.5787C28.8424 11.1724 28.3112 11.6042 27.727 11.4963L19.7062 10.3088C19.3875 10.2549 19.1219 10.039 18.9625 9.71514L15.4036 2.32084C15.2974 2.15892 15.138 2.15892 15.0849 2.15892C15.0318 2.15892 14.8724 2.15892 14.7662 2.32084L11.2073 9.71514C11.048 10.039 10.7293 10.2549 10.4106 10.3088L2.38977 11.4963C2.23041 11.4963 2.12418 11.6582 2.12418 11.7121C2.12418 11.7661 2.07106 11.928 2.23041 12.036L8.02025 17.8111C8.28584 18.081 8.39208 18.4048 8.33896 18.7826L6.9579 26.8786C6.90478 27.0405 7.01101 27.1484 7.06413 27.2024C7.11725 27.2564 7.2766 27.3103 7.43596 27.2024L14.6069 23.3703C14.9256 23.2084 15.2974 23.2084 15.6161 23.3703L22.787 27.2024C23.3182 27.4723 23.5306 28.1199 23.2119 28.6597C22.9464 29.1994 22.3089 29.4153 21.7778 29.0915L15.138 25.5292L8.49831 29.0915C8.07337 29.3073 7.64843 29.4153 7.2766 29.4153Z" fill="white"/>
</g>
<defs>
<clipPath id="clip0">
<rect width="69" height="36" fill="white"/>
</clipPath>
</defs>
</svg>
