<svg width="17" height="11" viewBox="0 0 17 11" fill="none" xmlns="http://www.w3.org/2000/svg">
<path fill-rule="evenodd" clip-rule="evenodd" d="M6.74335 3.15023L11.3333 5.31925L6.74335 7.48826V3.15023ZM17 4.9061C17 3.66667 16.83 2.37559 16.83 2.37559C16.83 2.37559 16.66 1.29108 16.15 0.826291C15.5267 0.206573 14.79 0.206573 14.45 0.15493C12.07 9.23452e-08 8.5 0 8.5 0C8.5 0 4.93 9.23452e-08 2.55 0.15493C2.21 0.206573 1.47333 0.206573 0.85 0.826291C0.34 1.29108 0.17001 2.37559 0.17001 2.37559C0.17001 2.37559 0 3.61502 0 4.9061V6.0939C0 7.33333 0.17001 8.62441 0.17001 8.62441C0.17001 8.62441 0.34 9.70892 0.85 10.1737C1.47333 10.7934 2.32334 10.7934 2.72001 10.8451C4.08001 10.9484 8.5 11 8.5 11C8.5 11 12.07 11 14.45 10.8451C14.79 10.7934 15.5267 10.7934 16.15 10.1737C16.66 9.70892 16.83 8.62441 16.83 8.62441C16.83 8.62441 17 7.38498 17 6.0939V4.9061Z" fill="white"/>
</svg>
